<svg width="967" height="329" viewBox="0 0 967 329" fill="none" xmlns="http://www.w3.org/2000/svg">
<g clip-path="url(#clip0_6_3880)">
<path d="M522.7 53.5467C519.073 35.1467 502.913 21.3334 483.5 21.3334C468.087 21.3334 454.7 30.08 448.033 42.88C431.98 44.5867 419.5 58.1867 419.5 74.6667C419.5 92.32 433.847 106.667 451.5 106.667H520.833C535.553 106.667 547.5 94.72 547.5 80C547.5 65.92 536.567 54.5067 522.7 53.5467ZM520.833 96H451.5C439.713 96 430.167 86.4534 430.167 74.6667C430.167 63.7334 438.327 54.6134 449.153 53.4934L454.86 52.9067L457.527 47.84C462.593 38.08 472.513 32 483.5 32C497.473 32 509.527 41.92 512.247 55.6267L513.847 63.6267L522.007 64.2134C530.327 64.7467 536.833 71.7334 536.833 80C536.833 88.8 529.633 96 520.833 96ZM462.167 69.3334H475.767V85.3334H491.233V69.3334H504.833L483.5 48L462.167 69.3334Z" fill="#7E22CE"/>
</g>
<path d="M13.9962 170.55C13.9962 170.046 13.9172 169.602 13.7592 169.217C13.6111 168.822 13.3445 168.466 12.9594 168.15C12.5842 167.834 12.0609 167.533 11.3895 167.247C10.7279 166.96 9.88866 166.669 8.87165 166.373C7.80528 166.057 6.84258 165.707 5.98355 165.321C5.12453 164.926 4.38893 164.477 3.77675 163.974C3.16457 163.47 2.69556 162.892 2.36972 162.241C2.04389 161.589 1.88097 160.844 1.88097 160.004C1.88097 159.165 2.05376 158.39 2.39934 157.679C2.74493 156.968 3.23862 156.351 3.88042 155.828C4.5321 155.295 5.30719 154.88 6.20571 154.584C7.10423 154.287 8.10643 154.139 9.2123 154.139C10.8316 154.139 12.2041 154.45 13.3297 155.072C14.4652 155.685 15.3291 156.489 15.9216 157.487C16.514 158.474 16.8102 159.53 16.8102 160.656H13.9666C13.9666 159.846 13.7938 159.131 13.4482 158.508C13.1026 157.877 12.5793 157.383 11.8782 157.027C11.1772 156.662 10.2885 156.479 9.2123 156.479C8.19529 156.479 7.35602 156.632 6.69447 156.939C6.03292 157.245 5.53923 157.659 5.21339 158.183C4.89743 158.706 4.73945 159.303 4.73945 159.975C4.73945 160.429 4.83325 160.844 5.02085 161.219C5.21833 161.584 5.51948 161.925 5.92431 162.241C6.33901 162.557 6.86232 162.848 7.49425 163.115C8.13605 163.381 8.90127 163.638 9.78992 163.885C11.0143 164.23 12.0708 164.615 12.9594 165.04C13.8481 165.465 14.5787 165.943 15.1514 166.477C15.734 167 16.1635 167.597 16.44 168.269C16.7263 168.93 16.8695 169.681 16.8695 170.52C16.8695 171.399 16.6917 172.194 16.3363 172.905C15.9808 173.615 15.4723 174.223 14.8108 174.726C14.1492 175.23 13.3544 175.62 12.4262 175.896C11.508 176.163 10.4811 176.296 9.3456 176.296C8.34834 176.296 7.36589 176.158 6.39825 175.882C5.44049 175.605 4.56665 175.19 3.77675 174.637C2.99671 174.084 2.36972 173.403 1.89578 172.594C1.43171 171.774 1.19967 170.826 1.19967 169.75H4.04334C4.04334 170.49 4.18651 171.127 4.47285 171.66C4.75919 172.184 5.14921 172.618 5.6429 172.964C6.14647 173.309 6.71422 173.566 7.34614 173.734C7.98794 173.892 8.65443 173.971 9.3456 173.971C10.3429 173.971 11.1871 173.833 11.8782 173.556C12.5694 173.28 13.0927 172.885 13.4482 172.371C13.8135 171.858 13.9962 171.251 13.9962 170.55ZM26.7483 176.296C25.6325 176.296 24.6204 176.109 23.712 175.733C22.8135 175.348 22.0384 174.81 21.3868 174.119C20.745 173.428 20.2513 172.608 19.9057 171.66C19.5601 170.713 19.3873 169.676 19.3873 168.55V167.928C19.3873 166.625 19.5798 165.465 19.9649 164.448C20.35 163.421 20.8733 162.552 21.5349 161.841C22.1964 161.13 22.9468 160.592 23.7861 160.227C24.6254 159.861 25.4943 159.679 26.3928 159.679C27.5382 159.679 28.5255 159.876 29.3549 160.271C30.1942 160.666 30.8805 161.219 31.4136 161.93C31.9468 162.631 32.3418 163.46 32.5985 164.418C32.8552 165.366 32.9836 166.403 32.9836 167.528V168.758H21.0165V166.521H30.2436V166.314C30.2041 165.603 30.056 164.912 29.7993 164.24C29.5524 163.569 29.1575 163.016 28.6144 162.581C28.0713 162.147 27.3308 161.93 26.3928 161.93C25.7707 161.93 25.1981 162.063 24.6747 162.33C24.1514 162.586 23.7022 162.971 23.327 163.485C22.9518 163.998 22.6605 164.625 22.4531 165.366C22.2458 166.106 22.1421 166.96 22.1421 167.928V168.55C22.1421 169.31 22.2458 170.026 22.4531 170.698C22.6704 171.359 22.9814 171.942 23.3862 172.445C23.8009 172.949 24.2995 173.344 24.8821 173.63C25.4745 173.917 26.1459 174.06 26.8964 174.06C27.864 174.06 28.6835 173.862 29.3549 173.467C30.0264 173.072 30.6139 172.544 31.1174 171.883L32.7762 173.201C32.4307 173.724 31.9913 174.223 31.4581 174.697C30.9249 175.171 30.2683 175.556 29.4882 175.852C28.7181 176.148 27.8048 176.296 26.7483 176.296ZM39.1597 153.251V176H36.4049V153.251H39.1597ZM50.2085 176.296C49.0928 176.296 48.0807 176.109 47.1723 175.733C46.2738 175.348 45.4987 174.81 44.847 174.119C44.2052 173.428 43.7115 172.608 43.3659 171.66C43.0204 170.713 42.8476 169.676 42.8476 168.55V167.928C42.8476 166.625 43.0401 165.465 43.4252 164.448C43.8103 163.421 44.3336 162.552 44.9951 161.841C45.6567 161.13 46.4071 160.592 47.2464 160.227C48.0856 159.861 48.9545 159.679 49.8531 159.679C50.9984 159.679 51.9858 159.876 52.8152 160.271C53.6545 160.666 54.3407 161.219 54.8739 161.93C55.4071 162.631 55.802 163.46 56.0588 164.418C56.3155 165.366 56.4438 166.403 56.4438 167.528V168.758H44.4767V166.521H53.7039V166.314C53.6644 165.603 53.5163 164.912 53.2595 164.24C53.0127 163.569 52.6177 163.016 52.0747 162.581C51.5316 162.147 50.7911 161.93 49.8531 161.93C49.231 161.93 48.6583 162.063 48.135 162.33C47.6117 162.586 47.1624 162.971 46.7872 163.485C46.412 163.998 46.1207 164.625 45.9134 165.366C45.706 166.106 45.6024 166.96 45.6024 167.928V168.55C45.6024 169.31 45.706 170.026 45.9134 170.698C46.1306 171.359 46.4416 171.942 46.8465 172.445C47.2612 172.949 47.7598 173.344 48.3424 173.63C48.9348 173.917 49.6062 174.06 50.3566 174.06C51.3243 174.06 52.1438 173.862 52.8152 173.467C53.4866 173.072 54.0741 172.544 54.5777 171.883L56.2365 173.201C55.8909 173.724 55.4515 174.223 54.9183 174.697C54.3851 175.171 53.7285 175.556 52.9485 175.852C52.1783 176.148 51.265 176.296 50.2085 176.296ZM66.056 174.045C66.7077 174.045 67.31 173.912 67.863 173.645C68.4159 173.378 68.8701 173.013 69.2255 172.549C69.581 172.075 69.7834 171.537 69.8328 170.935H72.4395C72.3901 171.883 72.0692 172.766 71.4768 173.586C70.8942 174.395 70.129 175.052 69.1811 175.556C68.2332 176.049 67.1915 176.296 66.056 176.296C64.8514 176.296 63.7999 176.084 62.9013 175.659C62.0127 175.235 61.2722 174.652 60.6797 173.912C60.0972 173.171 59.6578 172.322 59.3616 171.364C59.0752 170.397 58.9321 169.375 58.9321 168.298V167.676C58.9321 166.6 59.0752 165.583 59.3616 164.625C59.6578 163.658 60.0972 162.804 60.6797 162.063C61.2722 161.323 62.0127 160.74 62.9013 160.315C63.7999 159.891 64.8514 159.679 66.056 159.679C67.31 159.679 68.406 159.935 69.344 160.449C70.282 160.952 71.0176 161.643 71.5508 162.522C72.0939 163.391 72.3901 164.378 72.4395 165.484H69.8328C69.7834 164.823 69.5958 164.225 69.27 163.692C68.954 163.159 68.5196 162.734 67.9666 162.419C67.4236 162.093 66.7867 161.93 66.056 161.93C65.2168 161.93 64.5108 162.098 63.9381 162.433C63.3753 162.759 62.926 163.203 62.5903 163.766C62.2645 164.319 62.0275 164.936 61.8794 165.618C61.7412 166.289 61.6721 166.975 61.6721 167.676V168.298C61.6721 168.999 61.7412 169.691 61.8794 170.372C62.0176 171.053 62.2497 171.67 62.5755 172.223C62.9112 172.776 63.3605 173.221 63.9233 173.556C64.496 173.882 65.2069 174.045 66.056 174.045ZM82.2294 159.975V162.078H73.5651V159.975H82.2294ZM76.4976 156.08H79.2376V172.031C79.2376 172.574 79.3216 172.984 79.4894 173.26C79.6573 173.536 79.8745 173.719 80.1411 173.808C80.4077 173.897 80.694 173.941 81.0001 173.941C81.2272 173.941 81.4642 173.922 81.711 173.882C81.9677 173.833 82.1603 173.793 82.2886 173.764L82.3035 176C82.0862 176.069 81.7999 176.133 81.4444 176.193C81.0988 176.262 80.6792 176.296 80.1855 176.296C79.5141 176.296 78.897 176.163 78.3342 175.896C77.7714 175.63 77.3221 175.185 76.9864 174.563C76.6605 173.931 76.4976 173.082 76.4976 172.016V156.08ZM102.416 173.26V165.01C102.416 164.378 102.288 163.83 102.031 163.366C101.785 162.892 101.409 162.527 100.906 162.27C100.402 162.014 99.7802 161.885 99.0396 161.885C98.3485 161.885 97.7412 162.004 97.2179 162.241C96.7045 162.478 96.2996 162.789 96.0034 163.174C95.7171 163.559 95.5739 163.974 95.5739 164.418H92.8339C92.8339 163.845 92.982 163.278 93.2782 162.715C93.5745 162.152 93.999 161.643 94.552 161.189C95.1148 160.725 95.7862 160.36 96.5662 160.093C97.3561 159.817 98.2349 159.679 99.2025 159.679C100.368 159.679 101.395 159.876 102.283 160.271C103.182 160.666 103.883 161.263 104.386 162.063C104.9 162.853 105.156 163.845 105.156 165.04V172.505C105.156 173.038 105.201 173.606 105.29 174.208C105.389 174.81 105.532 175.329 105.719 175.763V176H102.861C102.723 175.684 102.614 175.264 102.535 174.741C102.456 174.208 102.416 173.714 102.416 173.26ZM102.89 166.284L102.92 168.21H100.15C99.3704 168.21 98.6743 168.274 98.0621 168.402C97.4499 168.521 96.9365 168.703 96.5218 168.95C96.1071 169.197 95.7911 169.508 95.5739 169.883C95.3567 170.248 95.2481 170.678 95.2481 171.172C95.2481 171.675 95.3616 172.134 95.5887 172.549C95.8158 172.964 96.1565 173.295 96.6107 173.541C97.0747 173.778 97.6425 173.897 98.3139 173.897C99.1532 173.897 99.8937 173.719 100.536 173.364C101.177 173.008 101.686 172.574 102.061 172.06C102.446 171.547 102.653 171.048 102.683 170.564L103.853 171.883C103.784 172.297 103.596 172.756 103.29 173.26C102.984 173.764 102.574 174.247 102.061 174.711C101.557 175.166 100.955 175.546 100.254 175.852C99.5629 176.148 98.7829 176.296 97.914 176.296C96.8279 176.296 95.8751 176.084 95.0555 175.659C94.2459 175.235 93.6139 174.667 93.1597 173.956C92.7154 173.235 92.4933 172.431 92.4933 171.542C92.4933 170.683 92.6611 169.928 92.9968 169.276C93.3325 168.614 93.8164 168.066 94.4483 167.632C95.0802 167.188 95.8405 166.852 96.7291 166.625C97.6178 166.398 98.6101 166.284 99.7061 166.284H102.89ZM120.649 176H117.909V158.583C117.909 157.368 118.146 156.341 118.619 155.502C119.093 154.663 119.77 154.026 120.649 153.591C121.527 153.157 122.569 152.94 123.774 152.94C124.485 152.94 125.181 153.028 125.862 153.206C126.543 153.374 127.244 153.586 127.965 153.843L127.506 156.154C127.052 155.976 126.523 155.808 125.921 155.65C125.329 155.482 124.677 155.398 123.966 155.398C122.791 155.398 121.942 155.665 121.419 156.198C120.905 156.721 120.649 157.516 120.649 158.583V176ZM123.922 159.975V162.078H115.376V159.975H123.922ZM129.313 159.975V176H126.573V159.975H129.313ZM136.792 153.251V176H134.037V153.251H136.792ZM147.841 176.296C146.725 176.296 145.713 176.109 144.805 175.733C143.906 175.348 143.131 174.81 142.48 174.119C141.838 173.428 141.344 172.608 140.999 171.66C140.653 170.713 140.48 169.676 140.48 168.55V167.928C140.48 166.625 140.673 165.465 141.058 164.448C141.443 163.421 141.966 162.552 142.628 161.841C143.289 161.13 144.04 160.592 144.879 160.227C145.718 159.861 146.587 159.679 147.486 159.679C148.631 159.679 149.618 159.876 150.448 160.271C151.287 160.666 151.973 161.219 152.507 161.93C153.04 162.631 153.435 163.46 153.691 164.418C153.948 165.366 154.076 166.403 154.076 167.528V168.758H142.109V166.521H151.336V166.314C151.297 165.603 151.149 164.912 150.892 164.24C150.645 163.569 150.25 163.016 149.707 162.581C149.164 162.147 148.424 161.93 147.486 161.93C146.864 161.93 146.291 162.063 145.768 162.33C145.244 162.586 144.795 162.971 144.42 163.485C144.045 163.998 143.753 164.625 143.546 165.366C143.339 166.106 143.235 166.96 143.235 167.928V168.55C143.235 169.31 143.339 170.026 143.546 170.698C143.763 171.359 144.074 171.942 144.479 172.445C144.894 172.949 145.392 173.344 145.975 173.63C146.567 173.917 147.239 174.06 147.989 174.06C148.957 174.06 149.776 173.862 150.448 173.467C151.119 173.072 151.707 172.544 152.21 171.883L153.869 173.201C153.524 173.724 153.084 174.223 152.551 174.697C152.018 175.171 151.361 175.556 150.581 175.852C149.811 176.148 148.898 176.296 147.841 176.296ZM164.074 168.165V167.824C164.074 166.669 164.242 165.598 164.577 164.611C164.913 163.613 165.397 162.749 166.029 162.019C166.661 161.278 167.426 160.705 168.324 160.301C169.223 159.886 170.23 159.679 171.346 159.679C172.471 159.679 173.483 159.886 174.382 160.301C175.29 160.705 176.061 161.278 176.692 162.019C177.334 162.749 177.823 163.613 178.159 164.611C178.494 165.598 178.662 166.669 178.662 167.824V168.165C178.662 169.32 178.494 170.392 178.159 171.379C177.823 172.366 177.334 173.23 176.692 173.971C176.061 174.702 175.295 175.274 174.397 175.689C173.508 176.094 172.501 176.296 171.375 176.296C170.25 176.296 169.238 176.094 168.339 175.689C167.441 175.274 166.671 174.702 166.029 173.971C165.397 173.23 164.913 172.366 164.577 171.379C164.242 170.392 164.074 169.32 164.074 168.165ZM166.814 167.824V168.165C166.814 168.965 166.908 169.72 167.095 170.431C167.283 171.132 167.564 171.754 167.939 172.297C168.324 172.84 168.803 173.27 169.376 173.586C169.949 173.892 170.615 174.045 171.375 174.045C172.126 174.045 172.782 173.892 173.345 173.586C173.918 173.27 174.392 172.84 174.767 172.297C175.142 171.754 175.424 171.132 175.611 170.431C175.809 169.72 175.908 168.965 175.908 168.165V167.824C175.908 167.035 175.809 166.289 175.611 165.588C175.424 164.877 175.137 164.25 174.752 163.707C174.377 163.154 173.903 162.72 173.33 162.404C172.768 162.088 172.106 161.93 171.346 161.93C170.595 161.93 169.934 162.088 169.361 162.404C168.798 162.72 168.324 163.154 167.939 163.707C167.564 164.25 167.283 164.877 167.095 165.588C166.908 166.289 166.814 167.035 166.814 167.824ZM184.838 162.493V176H182.098V159.975H184.764L184.838 162.493ZM189.844 159.886L189.83 162.433C189.603 162.384 189.385 162.354 189.178 162.344C188.98 162.325 188.753 162.315 188.497 162.315C187.865 162.315 187.307 162.414 186.823 162.611C186.339 162.809 185.929 163.085 185.594 163.44C185.258 163.796 184.991 164.221 184.794 164.714C184.606 165.198 184.483 165.731 184.424 166.314L183.654 166.758C183.654 165.79 183.747 164.882 183.935 164.033C184.132 163.184 184.434 162.433 184.838 161.782C185.243 161.12 185.757 160.607 186.379 160.241C187.011 159.866 187.761 159.679 188.63 159.679C188.827 159.679 189.055 159.703 189.311 159.753C189.568 159.792 189.746 159.837 189.844 159.886ZM210.002 172.89V153.251H212.757V176H210.239L210.002 172.89ZM199.22 168.165V167.854C199.22 166.63 199.368 165.519 199.664 164.522C199.97 163.515 200.4 162.651 200.953 161.93C201.515 161.209 202.182 160.656 202.952 160.271C203.732 159.876 204.601 159.679 205.559 159.679C206.566 159.679 207.445 159.856 208.195 160.212C208.955 160.557 209.597 161.066 210.12 161.737C210.654 162.399 211.073 163.199 211.379 164.137C211.685 165.075 211.898 166.136 212.016 167.321V168.683C211.908 169.858 211.695 170.915 211.379 171.853C211.073 172.791 210.654 173.591 210.12 174.252C209.597 174.914 208.955 175.422 208.195 175.778C207.435 176.123 206.546 176.296 205.529 176.296C204.591 176.296 203.732 176.094 202.952 175.689C202.182 175.284 201.515 174.716 200.953 173.986C200.4 173.255 199.97 172.396 199.664 171.409C199.368 170.411 199.22 169.33 199.22 168.165ZM201.974 167.854V168.165C201.974 168.965 202.053 169.715 202.211 170.416C202.379 171.117 202.636 171.734 202.982 172.268C203.327 172.801 203.767 173.221 204.3 173.527C204.833 173.823 205.47 173.971 206.21 173.971C207.119 173.971 207.864 173.778 208.447 173.393C209.039 173.008 209.513 172.5 209.869 171.868C210.224 171.236 210.501 170.55 210.698 169.809V166.24C210.58 165.697 210.407 165.173 210.18 164.67C209.962 164.156 209.676 163.702 209.321 163.307C208.975 162.902 208.546 162.581 208.032 162.344C207.529 162.107 206.931 161.989 206.24 161.989C205.49 161.989 204.843 162.147 204.3 162.463C203.767 162.769 203.327 163.194 202.982 163.737C202.636 164.27 202.379 164.892 202.211 165.603C202.053 166.304 201.974 167.054 201.974 167.854ZM219.762 162.493V176H217.022V159.975H219.688L219.762 162.493ZM224.768 159.886L224.753 162.433C224.526 162.384 224.309 162.354 224.102 162.344C223.904 162.325 223.677 162.315 223.42 162.315C222.789 162.315 222.231 162.414 221.747 162.611C221.263 162.809 220.853 163.085 220.518 163.44C220.182 163.796 219.915 164.221 219.718 164.714C219.53 165.198 219.407 165.731 219.348 166.314L218.577 166.758C218.577 165.79 218.671 164.882 218.859 164.033C219.056 163.184 219.357 162.433 219.762 161.782C220.167 161.12 220.68 160.607 221.303 160.241C221.934 159.866 222.685 159.679 223.554 159.679C223.751 159.679 223.978 159.703 224.235 159.753C224.492 159.792 224.67 159.837 224.768 159.886ZM236.158 173.26V165.01C236.158 164.378 236.029 163.83 235.773 163.366C235.526 162.892 235.151 162.527 234.647 162.27C234.143 162.014 233.521 161.885 232.781 161.885C232.09 161.885 231.482 162.004 230.959 162.241C230.446 162.478 230.041 162.789 229.745 163.174C229.458 163.559 229.315 163.974 229.315 164.418H226.575C226.575 163.845 226.723 163.278 227.019 162.715C227.316 162.152 227.74 161.643 228.293 161.189C228.856 160.725 229.527 160.36 230.307 160.093C231.097 159.817 231.976 159.679 232.944 159.679C234.109 159.679 235.136 159.876 236.024 160.271C236.923 160.666 237.624 161.263 238.128 162.063C238.641 162.853 238.898 163.845 238.898 165.04V172.505C238.898 173.038 238.942 173.606 239.031 174.208C239.13 174.81 239.273 175.329 239.461 175.763V176H236.602C236.464 175.684 236.355 175.264 236.276 174.741C236.197 174.208 236.158 173.714 236.158 173.26ZM236.632 166.284L236.661 168.21H233.892C233.112 168.21 232.416 168.274 231.803 168.402C231.191 168.521 230.678 168.703 230.263 168.95C229.848 169.197 229.532 169.508 229.315 169.883C229.098 170.248 228.989 170.678 228.989 171.172C228.989 171.675 229.103 172.134 229.33 172.549C229.557 172.964 229.898 173.295 230.352 173.541C230.816 173.778 231.384 173.897 232.055 173.897C232.894 173.897 233.635 173.719 234.277 173.364C234.919 173.008 235.427 172.574 235.802 172.06C236.187 171.547 236.395 171.048 236.424 170.564L237.594 171.883C237.525 172.297 237.338 172.756 237.032 173.26C236.725 173.764 236.316 174.247 235.802 174.711C235.299 175.166 234.696 175.546 233.995 175.852C233.304 176.148 232.524 176.296 231.655 176.296C230.569 176.296 229.616 176.084 228.797 175.659C227.987 175.235 227.355 174.667 226.901 173.956C226.457 173.235 226.235 172.431 226.235 171.542C226.235 170.683 226.402 169.928 226.738 169.276C227.074 168.614 227.558 168.066 228.19 167.632C228.821 167.188 229.582 166.852 230.47 166.625C231.359 166.398 232.351 166.284 233.447 166.284H236.632ZM253.59 159.975H256.078V175.659C256.078 177.071 255.792 178.276 255.219 179.273C254.647 180.27 253.847 181.026 252.82 181.539C251.803 182.063 250.628 182.324 249.295 182.324C248.742 182.324 248.09 182.235 247.34 182.058C246.599 181.89 245.869 181.598 245.148 181.184C244.437 180.779 243.84 180.231 243.356 179.54L244.792 177.911C245.464 178.72 246.165 179.283 246.896 179.599C247.636 179.915 248.367 180.073 249.088 180.073C249.956 180.073 250.707 179.91 251.339 179.584C251.971 179.258 252.459 178.775 252.805 178.133C253.161 177.501 253.338 176.721 253.338 175.793V163.5L253.59 159.975ZM242.556 168.165V167.854C242.556 166.63 242.699 165.519 242.986 164.522C243.282 163.515 243.701 162.651 244.244 161.93C244.797 161.209 245.464 160.656 246.244 160.271C247.024 159.876 247.903 159.679 248.88 159.679C249.887 159.679 250.766 159.856 251.517 160.212C252.277 160.557 252.919 161.066 253.442 161.737C253.975 162.399 254.395 163.199 254.701 164.137C255.007 165.075 255.219 166.136 255.338 167.321V168.683C255.229 169.858 255.017 170.915 254.701 171.853C254.395 172.791 253.975 173.591 253.442 174.252C252.919 174.914 252.277 175.422 251.517 175.778C250.756 176.123 249.868 176.296 248.851 176.296C247.893 176.296 247.024 176.094 246.244 175.689C245.474 175.284 244.812 174.716 244.259 173.986C243.706 173.255 243.282 172.396 242.986 171.409C242.699 170.411 242.556 169.33 242.556 168.165ZM245.296 167.854V168.165C245.296 168.965 245.375 169.715 245.533 170.416C245.701 171.117 245.953 171.734 246.288 172.268C246.634 172.801 247.073 173.221 247.606 173.527C248.14 173.823 248.777 173.971 249.517 173.971C250.425 173.971 251.176 173.778 251.768 173.393C252.361 173.008 252.83 172.5 253.175 171.868C253.531 171.236 253.807 170.55 254.005 169.809V166.24C253.896 165.697 253.728 165.173 253.501 164.67C253.284 164.156 252.998 163.702 252.642 163.307C252.297 162.902 251.867 162.581 251.354 162.344C250.84 162.107 250.238 161.989 249.547 161.989C248.796 161.989 248.15 162.147 247.606 162.463C247.073 162.769 246.634 163.194 246.288 163.737C245.953 164.27 245.701 164.892 245.533 165.603C245.375 166.304 245.296 167.054 245.296 167.854ZM277.213 173.26V165.01C277.213 164.378 277.085 163.83 276.828 163.366C276.581 162.892 276.206 162.527 275.702 162.27C275.199 162.014 274.577 161.885 273.836 161.885C273.145 161.885 272.538 162.004 272.015 162.241C271.501 162.478 271.096 162.789 270.8 163.174C270.514 163.559 270.371 163.974 270.371 164.418H267.631C267.631 163.845 267.779 163.278 268.075 162.715C268.371 162.152 268.796 161.643 269.349 161.189C269.911 160.725 270.583 160.36 271.363 160.093C272.153 159.817 273.032 159.679 273.999 159.679C275.164 159.679 276.191 159.876 277.08 160.271C277.978 160.666 278.679 161.263 279.183 162.063C279.696 162.853 279.953 163.845 279.953 165.04V172.505C279.953 173.038 279.998 173.606 280.086 174.208C280.185 174.81 280.328 175.329 280.516 175.763V176H277.658C277.519 175.684 277.411 175.264 277.332 174.741C277.253 174.208 277.213 173.714 277.213 173.26ZM277.687 166.284L277.717 168.21H274.947C274.167 168.21 273.471 168.274 272.859 168.402C272.247 168.521 271.733 168.703 271.319 168.95C270.904 169.197 270.588 169.508 270.371 169.883C270.153 170.248 270.045 170.678 270.045 171.172C270.045 171.675 270.158 172.134 270.385 172.549C270.613 172.964 270.953 173.295 271.407 173.541C271.871 173.778 272.439 173.897 273.111 173.897C273.95 173.897 274.69 173.719 275.332 173.364C275.974 173.008 276.483 172.574 276.858 172.06C277.243 171.547 277.45 171.048 277.48 170.564L278.65 171.883C278.581 172.297 278.393 172.756 278.087 173.26C277.781 173.764 277.371 174.247 276.858 174.711C276.354 175.166 275.752 175.546 275.051 175.852C274.36 176.148 273.58 176.296 272.711 176.296C271.625 176.296 270.672 176.084 269.852 175.659C269.043 175.235 268.411 174.667 267.956 173.956C267.512 173.235 267.29 172.431 267.29 171.542C267.29 170.683 267.458 169.928 267.794 169.276C268.129 168.614 268.613 168.066 269.245 167.632C269.877 167.188 270.637 166.852 271.526 166.625C272.414 166.398 273.407 166.284 274.503 166.284H277.687ZM287.003 163.396V176H284.263V159.975H286.855L287.003 163.396ZM286.351 167.38L285.211 167.336C285.221 166.24 285.384 165.228 285.7 164.299C286.016 163.361 286.46 162.547 287.033 161.856C287.605 161.165 288.287 160.631 289.077 160.256C289.876 159.871 290.76 159.679 291.728 159.679C292.518 159.679 293.229 159.787 293.861 160.004C294.492 160.212 295.031 160.547 295.475 161.012C295.929 161.476 296.275 162.078 296.512 162.818C296.749 163.549 296.867 164.443 296.867 165.499V176H294.112V165.47C294.112 164.63 293.989 163.959 293.742 163.455C293.495 162.942 293.135 162.572 292.661 162.344C292.187 162.107 291.604 161.989 290.913 161.989C290.232 161.989 289.61 162.132 289.047 162.419C288.494 162.705 288.015 163.1 287.61 163.603C287.215 164.107 286.904 164.685 286.677 165.336C286.46 165.978 286.351 166.659 286.351 167.38ZM311.13 172.89V153.251H313.885V176H311.367L311.13 172.89ZM300.348 168.165V167.854C300.348 166.63 300.496 165.519 300.792 164.522C301.098 163.515 301.528 162.651 302.08 161.93C302.643 161.209 303.31 160.656 304.08 160.271C304.86 159.876 305.729 159.679 306.687 159.679C307.694 159.679 308.573 159.856 309.323 160.212C310.083 160.557 310.725 161.066 311.248 161.737C311.782 162.399 312.201 163.199 312.507 164.137C312.813 165.075 313.026 166.136 313.144 167.321V168.683C313.036 169.858 312.823 170.915 312.507 171.853C312.201 172.791 311.782 173.591 311.248 174.252C310.725 174.914 310.083 175.422 309.323 175.778C308.563 176.123 307.674 176.296 306.657 176.296C305.719 176.296 304.86 176.094 304.08 175.689C303.31 175.284 302.643 174.716 302.08 173.986C301.528 173.255 301.098 172.396 300.792 171.409C300.496 170.411 300.348 169.33 300.348 168.165ZM303.102 167.854V168.165C303.102 168.965 303.181 169.715 303.339 170.416C303.507 171.117 303.764 171.734 304.11 172.268C304.455 172.801 304.895 173.221 305.428 173.527C305.961 173.823 306.598 173.971 307.338 173.971C308.247 173.971 308.992 173.778 309.575 173.393C310.167 173.008 310.641 172.5 310.997 171.868C311.352 171.236 311.629 170.55 311.826 169.809V166.24C311.707 165.697 311.535 165.173 311.308 164.67C311.09 164.156 310.804 163.702 310.449 163.307C310.103 162.902 309.673 162.581 309.16 162.344C308.656 162.107 308.059 161.989 307.368 161.989C306.618 161.989 305.971 162.147 305.428 162.463C304.895 162.769 304.455 163.194 304.11 163.737C303.764 164.27 303.507 164.892 303.339 165.603C303.181 166.304 303.102 167.054 303.102 167.854ZM335.775 172.89V153.251H338.53V176H336.012L335.775 172.89ZM324.993 168.165V167.854C324.993 166.63 325.141 165.519 325.437 164.522C325.743 163.515 326.173 162.651 326.726 161.93C327.288 161.209 327.955 160.656 328.725 160.271C329.505 159.876 330.374 159.679 331.332 159.679C332.339 159.679 333.218 159.856 333.968 160.212C334.728 160.557 335.37 161.066 335.893 161.737C336.427 162.399 336.846 163.199 337.152 164.137C337.458 165.075 337.671 166.136 337.789 167.321V168.683C337.681 169.858 337.468 170.915 337.152 171.853C336.846 172.791 336.427 173.591 335.893 174.252C335.37 174.914 334.728 175.422 333.968 175.778C333.208 176.123 332.319 176.296 331.302 176.296C330.364 176.296 329.505 176.094 328.725 175.689C327.955 175.284 327.288 174.716 326.726 173.986C326.173 173.255 325.743 172.396 325.437 171.409C325.141 170.411 324.993 169.33 324.993 168.165ZM327.748 167.854V168.165C327.748 168.965 327.827 169.715 327.985 170.416C328.152 171.117 328.409 171.734 328.755 172.268C329.1 172.801 329.54 173.221 330.073 173.527C330.606 173.823 331.243 173.971 331.983 173.971C332.892 173.971 333.637 173.778 334.22 173.393C334.812 173.008 335.286 172.5 335.642 171.868C335.997 171.236 336.274 170.55 336.471 169.809V166.24C336.353 165.697 336.18 165.173 335.953 164.67C335.735 164.156 335.449 163.702 335.094 163.307C334.748 162.902 334.319 162.581 333.805 162.344C333.302 162.107 332.704 161.989 332.013 161.989C331.263 161.989 330.616 162.147 330.073 162.463C329.54 162.769 329.1 163.194 328.755 163.737C328.409 164.27 328.152 164.892 327.985 165.603C327.827 166.304 327.748 167.054 327.748 167.854ZM345.535 162.493V176H342.795V159.975H345.461L345.535 162.493ZM350.541 159.886L350.527 162.433C350.299 162.384 350.082 162.354 349.875 162.344C349.677 162.325 349.45 162.315 349.194 162.315C348.562 162.315 348.004 162.414 347.52 162.611C347.036 162.809 346.626 163.085 346.291 163.44C345.955 163.796 345.688 164.221 345.491 164.714C345.303 165.198 345.18 165.731 345.121 166.314L344.35 166.758C344.35 165.79 344.444 164.882 344.632 164.033C344.829 163.184 345.13 162.433 345.535 161.782C345.94 161.12 346.454 160.607 347.076 160.241C347.708 159.866 348.458 159.679 349.327 159.679C349.524 159.679 349.751 159.703 350.008 159.753C350.265 159.792 350.443 159.837 350.541 159.886ZM352.052 168.165V167.824C352.052 166.669 352.22 165.598 352.556 164.611C352.891 163.613 353.375 162.749 354.007 162.019C354.639 161.278 355.404 160.705 356.303 160.301C357.201 159.886 358.208 159.679 359.324 159.679C360.45 159.679 361.462 159.886 362.36 160.301C363.269 160.705 364.039 161.278 364.671 162.019C365.313 162.749 365.801 163.613 366.137 164.611C366.473 165.598 366.641 166.669 366.641 167.824V168.165C366.641 169.32 366.473 170.392 366.137 171.379C365.801 172.366 365.313 173.23 364.671 173.971C364.039 174.702 363.274 175.274 362.375 175.689C361.486 176.094 360.479 176.296 359.354 176.296C358.228 176.296 357.216 176.094 356.318 175.689C355.419 175.274 354.649 174.702 354.007 173.971C353.375 173.23 352.891 172.366 352.556 171.379C352.22 170.392 352.052 169.32 352.052 168.165ZM354.792 167.824V168.165C354.792 168.965 354.886 169.72 355.073 170.431C355.261 171.132 355.542 171.754 355.918 172.297C356.303 172.84 356.782 173.27 357.354 173.586C357.927 173.892 358.593 174.045 359.354 174.045C360.104 174.045 360.761 173.892 361.324 173.586C361.896 173.27 362.37 172.84 362.745 172.297C363.121 171.754 363.402 171.132 363.59 170.431C363.787 169.72 363.886 168.965 363.886 168.165V167.824C363.886 167.035 363.787 166.289 363.59 165.588C363.402 164.877 363.116 164.25 362.731 163.707C362.355 163.154 361.881 162.72 361.309 162.404C360.746 162.088 360.084 161.93 359.324 161.93C358.574 161.93 357.912 162.088 357.339 162.404C356.777 162.72 356.303 163.154 355.918 163.707C355.542 164.25 355.261 164.877 355.073 165.588C354.886 166.289 354.792 167.035 354.792 167.824ZM372.817 163.055V182.161H370.062V159.975H372.58L372.817 163.055ZM383.614 167.854V168.165C383.614 169.33 383.476 170.411 383.199 171.409C382.923 172.396 382.518 173.255 381.985 173.986C381.461 174.716 380.815 175.284 380.044 175.689C379.274 176.094 378.391 176.296 377.393 176.296C376.376 176.296 375.478 176.128 374.698 175.793C373.918 175.457 373.256 174.968 372.713 174.326C372.17 173.685 371.736 172.914 371.41 172.016C371.094 171.117 370.877 170.105 370.758 168.98V167.321C370.877 166.136 371.099 165.075 371.425 164.137C371.75 163.199 372.18 162.399 372.713 161.737C373.256 161.066 373.913 160.557 374.683 160.212C375.453 159.856 376.342 159.679 377.349 159.679C378.356 159.679 379.25 159.876 380.03 160.271C380.81 160.656 381.466 161.209 381.999 161.93C382.533 162.651 382.932 163.515 383.199 164.522C383.476 165.519 383.614 166.63 383.614 167.854ZM380.859 168.165V167.854C380.859 167.054 380.775 166.304 380.607 165.603C380.439 164.892 380.178 164.27 379.822 163.737C379.477 163.194 379.032 162.769 378.489 162.463C377.946 162.147 377.299 161.989 376.549 161.989C375.858 161.989 375.256 162.107 374.742 162.344C374.239 162.581 373.809 162.902 373.454 163.307C373.098 163.702 372.807 164.156 372.58 164.67C372.363 165.173 372.2 165.697 372.091 166.24V170.076C372.288 170.767 372.565 171.419 372.92 172.031C373.276 172.633 373.75 173.122 374.342 173.497C374.935 173.862 375.68 174.045 376.579 174.045C377.319 174.045 377.956 173.892 378.489 173.586C379.032 173.27 379.477 172.84 379.822 172.297C380.178 171.754 380.439 171.132 380.607 170.431C380.775 169.72 380.859 168.965 380.859 168.165ZM397.373 153.251V176H394.633V153.251H397.373ZM396.721 167.38L395.581 167.336C395.591 166.24 395.754 165.228 396.07 164.299C396.386 163.361 396.83 162.547 397.403 161.856C397.975 161.165 398.657 160.631 399.446 160.256C400.246 159.871 401.13 159.679 402.098 159.679C402.888 159.679 403.598 159.787 404.23 160.004C404.862 160.212 405.4 160.547 405.845 161.012C406.299 161.476 406.645 162.078 406.882 162.818C407.118 163.549 407.237 164.443 407.237 165.499V176H404.482V165.47C404.482 164.63 404.359 163.959 404.112 163.455C403.865 162.942 403.505 162.572 403.031 162.344C402.557 162.107 401.974 161.989 401.283 161.989C400.602 161.989 399.98 162.132 399.417 162.419C398.864 162.705 398.385 163.1 397.98 163.603C397.585 164.107 397.274 164.685 397.047 165.336C396.83 165.978 396.721 166.659 396.721 167.38ZM417.99 176.296C416.874 176.296 415.862 176.109 414.953 175.733C414.055 175.348 413.28 174.81 412.628 174.119C411.986 173.428 411.493 172.608 411.147 171.66C410.801 170.713 410.629 169.676 410.629 168.55V167.928C410.629 166.625 410.821 165.465 411.206 164.448C411.591 163.421 412.115 162.552 412.776 161.841C413.438 161.13 414.188 160.592 415.027 160.227C415.867 159.861 416.736 159.679 417.634 159.679C418.779 159.679 419.767 159.876 420.596 160.271C421.436 160.666 422.122 161.219 422.655 161.93C423.188 162.631 423.583 163.46 423.84 164.418C424.097 165.366 424.225 166.403 424.225 167.528V168.758H412.258V166.521H421.485V166.314C421.445 165.603 421.297 164.912 421.041 164.24C420.794 163.569 420.399 163.016 419.856 162.581C419.313 162.147 418.572 161.93 417.634 161.93C417.012 161.93 416.439 162.063 415.916 162.33C415.393 162.586 414.943 162.971 414.568 163.485C414.193 163.998 413.902 164.625 413.694 165.366C413.487 166.106 413.383 166.96 413.383 167.928V168.55C413.383 169.31 413.487 170.026 413.694 170.698C413.912 171.359 414.223 171.942 414.628 172.445C415.042 172.949 415.541 173.344 416.123 173.63C416.716 173.917 417.387 174.06 418.138 174.06C419.105 174.06 419.925 173.862 420.596 173.467C421.268 173.072 421.855 172.544 422.359 171.883L424.018 173.201C423.672 173.724 423.233 174.223 422.699 174.697C422.166 175.171 421.51 175.556 420.73 175.852C419.959 176.148 419.046 176.296 417.99 176.296ZM430.164 162.493V176H427.424V159.975H430.09L430.164 162.493ZM435.17 159.886L435.155 162.433C434.928 162.384 434.711 162.354 434.504 162.344C434.306 162.325 434.079 162.315 433.822 162.315C433.19 162.315 432.632 162.414 432.149 162.611C431.665 162.809 431.255 163.085 430.919 163.44C430.584 163.796 430.317 164.221 430.12 164.714C429.932 165.198 429.809 165.731 429.749 166.314L428.979 166.758C428.979 165.79 429.073 164.882 429.261 164.033C429.458 163.184 429.759 162.433 430.164 161.782C430.569 161.12 431.082 160.607 431.704 160.241C432.336 159.866 433.087 159.679 433.956 159.679C434.153 159.679 434.38 159.703 434.637 159.753C434.894 159.792 435.071 159.837 435.17 159.886ZM444.057 176.296C442.941 176.296 441.929 176.109 441.02 175.733C440.122 175.348 439.347 174.81 438.695 174.119C438.053 173.428 437.56 172.608 437.214 171.66C436.868 170.713 436.696 169.676 436.696 168.55V167.928C436.696 166.625 436.888 165.465 437.273 164.448C437.658 163.421 438.182 162.552 438.843 161.841C439.505 161.13 440.255 160.592 441.094 160.227C441.934 159.861 442.803 159.679 443.701 159.679C444.846 159.679 445.834 159.876 446.663 160.271C447.503 160.666 448.189 161.219 448.722 161.93C449.255 162.631 449.65 163.46 449.907 164.418C450.164 165.366 450.292 166.403 450.292 167.528V168.758H438.325V166.521H447.552V166.314C447.512 165.603 447.364 164.912 447.108 164.24C446.861 163.569 446.466 163.016 445.923 162.581C445.38 162.147 444.639 161.93 443.701 161.93C443.079 161.93 442.506 162.063 441.983 162.33C441.46 162.586 441.01 162.971 440.635 163.485C440.26 163.998 439.969 164.625 439.761 165.366C439.554 166.106 439.45 166.96 439.45 167.928V168.55C439.45 169.31 439.554 170.026 439.761 170.698C439.979 171.359 440.29 171.942 440.694 172.445C441.109 172.949 441.608 173.344 442.19 173.63C442.783 173.917 443.454 174.06 444.205 174.06C445.172 174.06 445.992 173.862 446.663 173.467C447.335 173.072 447.922 172.544 448.426 171.883L450.085 173.201C449.739 173.724 449.3 174.223 448.766 174.697C448.233 175.171 447.577 175.556 446.797 175.852C446.026 176.148 445.113 176.296 444.057 176.296ZM460.911 167.38V167.232C460.911 165.08 461.153 163.134 461.637 161.397C462.121 159.649 462.738 158.118 463.488 156.805C464.239 155.492 465.029 154.406 465.858 153.547C466.687 152.678 467.453 152.051 468.154 151.666L468.731 153.473C468.149 153.917 467.556 154.529 466.954 155.309C466.362 156.089 465.814 157.047 465.31 158.183C464.816 159.318 464.416 160.636 464.11 162.137C463.804 163.638 463.651 165.326 463.651 167.202V167.41C463.651 169.286 463.804 170.979 464.11 172.49C464.416 173.991 464.816 175.314 465.31 176.459C465.814 177.605 466.362 178.577 466.954 179.377C467.556 180.187 468.149 180.828 468.731 181.302L468.154 182.961C467.453 182.576 466.687 181.949 465.858 181.08C465.029 180.221 464.239 179.135 463.488 177.822C462.738 176.518 462.121 174.993 461.637 173.245C461.153 171.498 460.911 169.543 460.911 167.38ZM479.78 167.543H474.019V165.218H479.78C480.896 165.218 481.799 165.04 482.49 164.685C483.182 164.329 483.685 163.835 484.001 163.203C484.327 162.572 484.49 161.851 484.49 161.041C484.49 160.301 484.327 159.604 484.001 158.953C483.685 158.301 483.182 157.778 482.49 157.383C481.799 156.978 480.896 156.776 479.78 156.776H474.685V176H471.827V154.436H479.78C481.409 154.436 482.787 154.717 483.912 155.28C485.038 155.843 485.892 156.623 486.475 157.62C487.057 158.607 487.348 159.738 487.348 161.012C487.348 162.394 487.057 163.574 486.475 164.551C485.892 165.529 485.038 166.274 483.912 166.788C482.787 167.291 481.409 167.543 479.78 167.543ZM489.614 168.165V167.824C489.614 166.669 489.782 165.598 490.118 164.611C490.454 163.613 490.938 162.749 491.569 162.019C492.201 161.278 492.967 160.705 493.865 160.301C494.764 159.886 495.771 159.679 496.887 159.679C498.012 159.679 499.024 159.886 499.923 160.301C500.831 160.705 501.601 161.278 502.233 162.019C502.875 162.749 503.364 163.613 503.699 164.611C504.035 165.598 504.203 166.669 504.203 167.824V168.165C504.203 169.32 504.035 170.392 503.699 171.379C503.364 172.366 502.875 173.23 502.233 173.971C501.601 174.702 500.836 175.274 499.938 175.689C499.049 176.094 498.042 176.296 496.916 176.296C495.791 176.296 494.778 176.094 493.88 175.689C492.981 175.274 492.211 174.702 491.569 173.971C490.938 173.23 490.454 172.366 490.118 171.379C489.782 170.392 489.614 169.32 489.614 168.165ZM492.354 167.824V168.165C492.354 168.965 492.448 169.72 492.636 170.431C492.823 171.132 493.105 171.754 493.48 172.297C493.865 172.84 494.344 173.27 494.917 173.586C495.489 173.892 496.156 174.045 496.916 174.045C497.667 174.045 498.323 173.892 498.886 173.586C499.459 173.27 499.933 172.84 500.308 172.297C500.683 171.754 500.964 171.132 501.152 170.431C501.35 169.72 501.448 168.965 501.448 168.165V167.824C501.448 167.035 501.35 166.289 501.152 165.588C500.964 164.877 500.678 164.25 500.293 163.707C499.918 163.154 499.444 162.72 498.871 162.404C498.308 162.088 497.647 161.93 496.887 161.93C496.136 161.93 495.475 162.088 494.902 162.404C494.339 162.72 493.865 163.154 493.48 163.707C493.105 164.25 492.823 164.877 492.636 165.588C492.448 166.289 492.354 167.035 492.354 167.824ZM517.74 172.89V153.251H520.495V176H517.977L517.74 172.89ZM506.958 168.165V167.854C506.958 166.63 507.106 165.519 507.402 164.522C507.708 163.515 508.138 162.651 508.691 161.93C509.254 161.209 509.92 160.656 510.69 160.271C511.47 159.876 512.339 159.679 513.297 159.679C514.304 159.679 515.183 159.856 515.933 160.212C516.693 160.557 517.335 161.066 517.859 161.737C518.392 162.399 518.811 163.199 519.118 164.137C519.424 165.075 519.636 166.136 519.754 167.321V168.683C519.646 169.858 519.433 170.915 519.118 171.853C518.811 172.791 518.392 173.591 517.859 174.252C517.335 174.914 516.693 175.422 515.933 175.778C515.173 176.123 514.284 176.296 513.267 176.296C512.329 176.296 511.47 176.094 510.69 175.689C509.92 175.284 509.254 174.716 508.691 173.986C508.138 173.255 507.708 172.396 507.402 171.409C507.106 170.411 506.958 169.33 506.958 168.165ZM509.713 167.854V168.165C509.713 168.965 509.792 169.715 509.95 170.416C510.117 171.117 510.374 171.734 510.72 172.268C511.065 172.801 511.505 173.221 512.038 173.527C512.571 173.823 513.208 173.971 513.949 173.971C514.857 173.971 515.602 173.778 516.185 173.393C516.777 173.008 517.251 172.5 517.607 171.868C517.962 171.236 518.239 170.55 518.436 169.809V166.24C518.318 165.697 518.145 165.173 517.918 164.67C517.701 164.156 517.414 163.702 517.059 163.307C516.713 162.902 516.284 162.581 515.77 162.344C515.267 162.107 514.669 161.989 513.978 161.989C513.228 161.989 512.581 162.147 512.038 162.463C511.505 162.769 511.065 163.194 510.72 163.737C510.374 164.27 510.117 164.892 509.95 165.603C509.792 166.304 509.713 167.054 509.713 167.854ZM531.174 174.045C531.825 174.045 532.427 173.912 532.98 173.645C533.533 173.378 533.988 173.013 534.343 172.549C534.698 172.075 534.901 171.537 534.95 170.935H537.557C537.508 171.883 537.187 172.766 536.594 173.586C536.012 174.395 535.246 175.052 534.299 175.556C533.351 176.049 532.309 176.296 531.174 176.296C529.969 176.296 528.917 176.084 528.019 175.659C527.13 175.235 526.39 174.652 525.797 173.912C525.215 173.171 524.775 172.322 524.479 171.364C524.193 170.397 524.05 169.375 524.05 168.298V167.676C524.05 166.6 524.193 165.583 524.479 164.625C524.775 163.658 525.215 162.804 525.797 162.063C526.39 161.323 527.13 160.74 528.019 160.315C528.917 159.891 529.969 159.679 531.174 159.679C532.427 159.679 533.523 159.935 534.461 160.449C535.4 160.952 536.135 161.643 536.668 162.522C537.211 163.391 537.508 164.378 537.557 165.484H534.95C534.901 164.823 534.713 164.225 534.387 163.692C534.071 163.159 533.637 162.734 533.084 162.419C532.541 162.093 531.904 161.93 531.174 161.93C530.334 161.93 529.628 162.098 529.056 162.433C528.493 162.759 528.043 163.203 527.708 163.766C527.382 164.319 527.145 164.936 526.997 165.618C526.859 166.289 526.79 166.975 526.79 167.676V168.298C526.79 168.999 526.859 169.691 526.997 170.372C527.135 171.053 527.367 171.67 527.693 172.223C528.029 172.776 528.478 173.221 529.041 173.556C529.613 173.882 530.324 174.045 531.174 174.045ZM550.087 173.26V165.01C550.087 164.378 549.958 163.83 549.702 163.366C549.455 162.892 549.08 162.527 548.576 162.27C548.073 162.014 547.451 161.885 546.71 161.885C546.019 161.885 545.412 162.004 544.888 162.241C544.375 162.478 543.97 162.789 543.674 163.174C543.387 163.559 543.244 163.974 543.244 164.418H540.504C540.504 163.845 540.652 163.278 540.949 162.715C541.245 162.152 541.669 161.643 542.222 161.189C542.785 160.725 543.457 160.36 544.237 160.093C545.026 159.817 545.905 159.679 546.873 159.679C548.038 159.679 549.065 159.876 549.954 160.271C550.852 160.666 551.553 161.263 552.057 162.063C552.57 162.853 552.827 163.845 552.827 165.04V172.505C552.827 173.038 552.871 173.606 552.96 174.208C553.059 174.81 553.202 175.329 553.39 175.763V176H550.531C550.393 175.684 550.284 175.264 550.205 174.741C550.126 174.208 550.087 173.714 550.087 173.26ZM550.561 166.284L550.59 168.21H547.821C547.041 168.21 546.345 168.274 545.732 168.402C545.12 168.521 544.607 168.703 544.192 168.95C543.777 169.197 543.461 169.508 543.244 169.883C543.027 170.248 542.918 170.678 542.918 171.172C542.918 171.675 543.032 172.134 543.259 172.549C543.486 172.964 543.827 173.295 544.281 173.541C544.745 173.778 545.313 173.897 545.984 173.897C546.824 173.897 547.564 173.719 548.206 173.364C548.848 173.008 549.356 172.574 549.731 172.06C550.116 171.547 550.324 171.048 550.353 170.564L551.523 171.883C551.454 172.297 551.267 172.756 550.961 173.26C550.655 173.764 550.245 174.247 549.731 174.711C549.228 175.166 548.626 175.546 547.924 175.852C547.233 176.148 546.453 176.296 545.584 176.296C544.498 176.296 543.545 176.084 542.726 175.659C541.916 175.235 541.284 174.667 540.83 173.956C540.386 173.235 540.164 172.431 540.164 171.542C540.164 170.683 540.331 169.928 540.667 169.276C541.003 168.614 541.487 168.066 542.119 167.632C542.751 167.188 543.511 166.852 544.4 166.625C545.288 166.398 546.28 166.284 547.376 166.284H550.561ZM566.468 171.749C566.468 171.354 566.379 170.989 566.201 170.653C566.033 170.308 565.683 169.997 565.149 169.72C564.626 169.434 563.836 169.187 562.78 168.98C561.891 168.792 561.086 168.57 560.366 168.313C559.655 168.056 559.047 167.745 558.544 167.38C558.05 167.015 557.67 166.585 557.403 166.092C557.137 165.598 557.003 165.02 557.003 164.359C557.003 163.727 557.142 163.129 557.418 162.567C557.705 162.004 558.104 161.505 558.618 161.071C559.141 160.636 559.768 160.296 560.499 160.049C561.229 159.802 562.044 159.679 562.943 159.679C564.226 159.679 565.322 159.906 566.231 160.36C567.139 160.814 567.835 161.421 568.319 162.182C568.803 162.932 569.045 163.766 569.045 164.685H566.305C566.305 164.24 566.171 163.811 565.905 163.396C565.648 162.971 565.268 162.621 564.764 162.344C564.271 162.068 563.663 161.93 562.943 161.93C562.182 161.93 561.565 162.048 561.091 162.285C560.627 162.512 560.287 162.804 560.069 163.159C559.862 163.515 559.758 163.89 559.758 164.285C559.758 164.581 559.808 164.847 559.906 165.084C560.015 165.312 560.203 165.524 560.469 165.721C560.736 165.909 561.111 166.087 561.595 166.255C562.079 166.422 562.696 166.59 563.446 166.758C564.759 167.054 565.841 167.41 566.69 167.824C567.539 168.239 568.171 168.748 568.586 169.35C569 169.952 569.208 170.683 569.208 171.542C569.208 172.243 569.059 172.885 568.763 173.467C568.477 174.05 568.057 174.553 567.504 174.978C566.961 175.393 566.31 175.719 565.549 175.956C564.799 176.183 563.955 176.296 563.017 176.296C561.605 176.296 560.41 176.044 559.432 175.541C558.455 175.037 557.714 174.386 557.211 173.586C556.707 172.786 556.455 171.942 556.455 171.053H559.21C559.25 171.804 559.467 172.401 559.862 172.845C560.257 173.28 560.741 173.591 561.313 173.778C561.886 173.956 562.454 174.045 563.017 174.045C563.767 174.045 564.394 173.946 564.898 173.749C565.411 173.551 565.801 173.28 566.068 172.934C566.334 172.589 566.468 172.194 566.468 171.749ZM579.516 159.975V162.078H570.852V159.975H579.516ZM573.784 156.08H576.524V172.031C576.524 172.574 576.608 172.984 576.776 173.26C576.944 173.536 577.161 173.719 577.428 173.808C577.694 173.897 577.98 173.941 578.287 173.941C578.514 173.941 578.751 173.922 578.997 173.882C579.254 173.833 579.447 173.793 579.575 173.764L579.59 176C579.373 176.069 579.086 176.133 578.731 176.193C578.385 176.262 577.966 176.296 577.472 176.296C576.801 176.296 576.183 176.163 575.621 175.896C575.058 175.63 574.609 175.185 574.273 174.563C573.947 173.931 573.784 173.082 573.784 172.016V156.08ZM591.572 154.436H594.341L601.406 172.016L608.456 154.436H611.241L602.473 176H600.31L591.572 154.436ZM590.668 154.436H593.112L593.512 167.587V176H590.668V154.436ZM609.685 154.436H612.129V176H609.286V167.587L609.685 154.436ZM623.385 176.296C622.27 176.296 621.258 176.109 620.349 175.733C619.451 175.348 618.676 174.81 618.024 174.119C617.382 173.428 616.888 172.608 616.543 171.66C616.197 170.713 616.024 169.676 616.024 168.55V167.928C616.024 166.625 616.217 165.465 616.602 164.448C616.987 163.421 617.51 162.552 618.172 161.841C618.833 161.13 619.584 160.592 620.423 160.227C621.262 159.861 622.131 159.679 623.03 159.679C624.175 159.679 625.163 159.876 625.992 160.271C626.831 160.666 627.518 161.219 628.051 161.93C628.584 162.631 628.979 163.46 629.236 164.418C629.492 165.366 629.621 166.403 629.621 167.528V168.758H617.654V166.521H626.881V166.314C626.841 165.603 626.693 164.912 626.436 164.24C626.189 163.569 625.795 163.016 625.251 162.581C624.708 162.147 623.968 161.93 623.03 161.93C622.408 161.93 621.835 162.063 621.312 162.33C620.789 162.586 620.339 162.971 619.964 163.485C619.589 163.998 619.298 164.625 619.09 165.366C618.883 166.106 618.779 166.96 618.779 167.928V168.55C618.779 169.31 618.883 170.026 619.09 170.698C619.307 171.359 619.618 171.942 620.023 172.445C620.438 172.949 620.937 173.344 621.519 173.63C622.112 173.917 622.783 174.06 623.533 174.06C624.501 174.06 625.321 173.862 625.992 173.467C626.663 173.072 627.251 172.544 627.755 171.883L629.413 173.201C629.068 173.724 628.628 174.223 628.095 174.697C627.562 175.171 626.905 175.556 626.125 175.852C625.355 176.148 624.442 176.296 623.385 176.296ZM642.921 172.89V153.251H645.676V176H643.158L642.921 172.89ZM632.139 168.165V167.854C632.139 166.63 632.287 165.519 632.583 164.522C632.889 163.515 633.318 162.651 633.871 161.93C634.434 161.209 635.101 160.656 635.871 160.271C636.651 159.876 637.52 159.679 638.478 159.679C639.485 159.679 640.363 159.856 641.114 160.212C641.874 160.557 642.516 161.066 643.039 161.737C643.572 162.399 643.992 163.199 644.298 164.137C644.604 165.075 644.817 166.136 644.935 167.321V168.683C644.826 169.858 644.614 170.915 644.298 171.853C643.992 172.791 643.572 173.591 643.039 174.252C642.516 174.914 641.874 175.422 641.114 175.778C640.354 176.123 639.465 176.296 638.448 176.296C637.51 176.296 636.651 176.094 635.871 175.689C635.101 175.284 634.434 174.716 633.871 173.986C633.318 173.255 632.889 172.396 632.583 171.409C632.287 170.411 632.139 169.33 632.139 168.165ZM634.893 167.854V168.165C634.893 168.965 634.972 169.715 635.13 170.416C635.298 171.117 635.555 171.734 635.9 172.268C636.246 172.801 636.685 173.221 637.219 173.527C637.752 173.823 638.389 173.971 639.129 173.971C640.038 173.971 640.783 173.778 641.366 173.393C641.958 173.008 642.432 172.5 642.787 171.868C643.143 171.236 643.419 170.55 643.617 169.809V166.24C643.498 165.697 643.326 165.173 643.098 164.67C642.881 164.156 642.595 163.702 642.239 163.307C641.894 162.902 641.464 162.581 640.951 162.344C640.447 162.107 639.85 161.989 639.159 161.989C638.408 161.989 637.762 162.147 637.219 162.463C636.685 162.769 636.246 163.194 635.9 163.737C635.555 164.27 635.298 164.892 635.13 165.603C634.972 166.304 634.893 167.054 634.893 167.854ZM652.918 159.975V176H650.163V159.975H652.918ZM649.956 155.724C649.956 155.28 650.089 154.905 650.356 154.598C650.632 154.292 651.037 154.139 651.57 154.139C652.094 154.139 652.493 154.292 652.77 154.598C653.056 154.905 653.199 155.28 653.199 155.724C653.199 156.149 653.056 156.514 652.77 156.82C652.493 157.116 652.094 157.264 651.57 157.264C651.037 157.264 650.632 157.116 650.356 156.82C650.089 156.514 649.956 156.149 649.956 155.724ZM666.766 173.26V165.01C666.766 164.378 666.638 163.83 666.381 163.366C666.134 162.892 665.759 162.527 665.255 162.27C664.752 162.014 664.13 161.885 663.389 161.885C662.698 161.885 662.091 162.004 661.568 162.241C661.054 162.478 660.649 162.789 660.353 163.174C660.067 163.559 659.924 163.974 659.924 164.418H657.184C657.184 163.845 657.332 163.278 657.628 162.715C657.924 162.152 658.349 161.643 658.902 161.189C659.464 160.725 660.136 160.36 660.916 160.093C661.706 159.817 662.585 159.679 663.552 159.679C664.717 159.679 665.744 159.876 666.633 160.271C667.531 160.666 668.232 161.263 668.736 162.063C669.249 162.853 669.506 163.845 669.506 165.04V172.505C669.506 173.038 669.551 173.606 669.639 174.208C669.738 174.81 669.881 175.329 670.069 175.763V176H667.21C667.072 175.684 666.964 175.264 666.885 174.741C666.806 174.208 666.766 173.714 666.766 173.26ZM667.24 166.284L667.27 168.21H664.5C663.72 168.21 663.024 168.274 662.412 168.402C661.8 168.521 661.286 168.703 660.871 168.95C660.457 169.197 660.141 169.508 659.924 169.883C659.706 170.248 659.598 170.678 659.598 171.172C659.598 171.675 659.711 172.134 659.938 172.549C660.165 172.964 660.506 173.295 660.96 173.541C661.424 173.778 661.992 173.897 662.664 173.897C663.503 173.897 664.243 173.719 664.885 173.364C665.527 173.008 666.035 172.574 666.411 172.06C666.796 171.547 667.003 171.048 667.033 170.564L668.203 171.883C668.134 172.297 667.946 172.756 667.64 173.26C667.334 173.764 666.924 174.247 666.411 174.711C665.907 175.166 665.305 175.546 664.604 175.852C663.913 176.148 663.133 176.296 662.264 176.296C661.178 176.296 660.225 176.084 659.405 175.659C658.595 175.235 657.964 174.667 657.509 173.956C657.065 173.235 656.843 172.431 656.843 171.542C656.843 170.683 657.011 169.928 657.346 169.276C657.682 168.614 658.166 168.066 658.798 167.632C659.43 167.188 660.19 166.852 661.079 166.625C661.967 166.398 662.96 166.284 664.056 166.284H667.24ZM680.614 168.165V167.824C680.614 166.669 680.782 165.598 681.118 164.611C681.453 163.613 681.937 162.749 682.569 162.019C683.201 161.278 683.966 160.705 684.865 160.301C685.763 159.886 686.771 159.679 687.886 159.679C689.012 159.679 690.024 159.886 690.922 160.301C691.831 160.705 692.601 161.278 693.233 162.019C693.875 162.749 694.364 163.613 694.699 164.611C695.035 165.598 695.203 166.669 695.203 167.824V168.165C695.203 169.32 695.035 170.392 694.699 171.379C694.364 172.366 693.875 173.23 693.233 173.971C692.601 174.702 691.836 175.274 690.937 175.689C690.049 176.094 689.042 176.296 687.916 176.296C686.79 176.296 685.778 176.094 684.88 175.689C683.981 175.274 683.211 174.702 682.569 173.971C681.937 173.23 681.453 172.366 681.118 171.379C680.782 170.392 680.614 169.32 680.614 168.165ZM683.354 167.824V168.165C683.354 168.965 683.448 169.72 683.636 170.431C683.823 171.132 684.105 171.754 684.48 172.297C684.865 172.84 685.344 173.27 685.916 173.586C686.489 173.892 687.156 174.045 687.916 174.045C688.666 174.045 689.323 173.892 689.886 173.586C690.458 173.27 690.932 172.84 691.308 172.297C691.683 171.754 691.964 171.132 692.152 170.431C692.349 169.72 692.448 168.965 692.448 168.165V167.824C692.448 167.035 692.349 166.289 692.152 165.588C691.964 164.877 691.678 164.25 691.293 163.707C690.918 163.154 690.444 162.72 689.871 162.404C689.308 162.088 688.647 161.93 687.886 161.93C687.136 161.93 686.474 162.088 685.902 162.404C685.339 162.72 684.865 163.154 684.48 163.707C684.105 164.25 683.823 164.877 683.636 165.588C683.448 166.289 683.354 167.035 683.354 167.824ZM701.379 162.493V176H698.639V159.975H701.305L701.379 162.493ZM706.385 159.886L706.37 162.433C706.143 162.384 705.926 162.354 705.718 162.344C705.521 162.325 705.294 162.315 705.037 162.315C704.405 162.315 703.847 162.414 703.363 162.611C702.88 162.809 702.47 163.085 702.134 163.44C701.798 163.796 701.532 164.221 701.334 164.714C701.147 165.198 701.023 165.731 700.964 166.314L700.194 166.758C700.194 165.79 700.288 164.882 700.475 164.033C700.673 163.184 700.974 162.433 701.379 161.782C701.784 161.12 702.297 160.607 702.919 160.241C703.551 159.866 704.302 159.679 705.17 159.679C705.368 159.679 705.595 159.703 705.852 159.753C706.108 159.792 706.286 159.837 706.385 159.886ZM724.232 154.436V176H721.418V154.436H724.232ZM731.163 154.436V156.776H714.501V154.436H731.163ZM735.562 162.493V176H732.822V159.975H735.488L735.562 162.493ZM740.568 159.886L740.553 162.433C740.326 162.384 740.109 162.354 739.902 162.344C739.704 162.325 739.477 162.315 739.22 162.315C738.588 162.315 738.031 162.414 737.547 162.611C737.063 162.809 736.653 163.085 736.317 163.44C735.982 163.796 735.715 164.221 735.518 164.714C735.33 165.198 735.207 165.731 735.147 166.314L734.377 166.758C734.377 165.79 734.471 164.882 734.659 164.033C734.856 163.184 735.157 162.433 735.562 161.782C735.967 161.12 736.48 160.607 737.102 160.241C737.734 159.866 738.485 159.679 739.354 159.679C739.551 159.679 739.778 159.703 740.035 159.753C740.292 159.792 740.469 159.837 740.568 159.886ZM751.958 173.26V165.01C751.958 164.378 751.829 163.83 751.573 163.366C751.326 162.892 750.951 162.527 750.447 162.27C749.943 162.014 749.321 161.885 748.581 161.885C747.89 161.885 747.282 162.004 746.759 162.241C746.246 162.478 745.841 162.789 745.545 163.174C745.258 163.559 745.115 163.974 745.115 164.418H742.375C742.375 163.845 742.523 163.278 742.819 162.715C743.116 162.152 743.54 161.643 744.093 161.189C744.656 160.725 745.327 160.36 746.107 160.093C746.897 159.817 747.776 159.679 748.744 159.679C749.909 159.679 750.936 159.876 751.824 160.271C752.723 160.666 753.424 161.263 753.927 162.063C754.441 162.853 754.698 163.845 754.698 165.04V172.505C754.698 173.038 754.742 173.606 754.831 174.208C754.93 174.81 755.073 175.329 755.26 175.763V176H752.402C752.264 175.684 752.155 175.264 752.076 174.741C751.997 174.208 751.958 173.714 751.958 173.26ZM752.432 166.284L752.461 168.21H749.692C748.912 168.21 748.215 168.274 747.603 168.402C746.991 168.521 746.478 168.703 746.063 168.95C745.648 169.197 745.332 169.508 745.115 169.883C744.898 170.248 744.789 170.678 744.789 171.172C744.789 171.675 744.903 172.134 745.13 172.549C745.357 172.964 745.698 173.295 746.152 173.541C746.616 173.778 747.184 173.897 747.855 173.897C748.694 173.897 749.435 173.719 750.077 173.364C750.718 173.008 751.227 172.574 751.602 172.06C751.987 171.547 752.195 171.048 752.224 170.564L753.394 171.883C753.325 172.297 753.138 172.756 752.831 173.26C752.525 173.764 752.116 174.247 751.602 174.711C751.099 175.166 750.496 175.546 749.795 175.852C749.104 176.148 748.324 176.296 747.455 176.296C746.369 176.296 745.416 176.084 744.597 175.659C743.787 175.235 743.155 174.667 742.701 173.956C742.257 173.235 742.034 172.431 742.034 171.542C742.034 170.683 742.202 169.928 742.538 169.276C742.874 168.614 743.358 168.066 743.989 167.632C744.621 167.188 745.382 166.852 746.27 166.625C747.159 166.398 748.151 166.284 749.247 166.284H752.432ZM761.748 163.396V176H759.008V159.975H761.599L761.748 163.396ZM761.096 167.38L759.955 167.336C759.965 166.24 760.128 165.228 760.444 164.299C760.76 163.361 761.205 162.547 761.777 161.856C762.35 161.165 763.031 160.631 763.821 160.256C764.621 159.871 765.505 159.679 766.472 159.679C767.262 159.679 767.973 159.787 768.605 160.004C769.237 160.212 769.775 160.547 770.219 161.012C770.674 161.476 771.019 162.078 771.256 162.818C771.493 163.549 771.612 164.443 771.612 165.499V176H768.857V165.47C768.857 164.63 768.733 163.959 768.486 163.455C768.24 162.942 767.879 162.572 767.405 162.344C766.931 162.107 766.349 161.989 765.658 161.989C764.976 161.989 764.354 162.132 763.791 162.419C763.239 162.705 762.76 163.1 762.355 163.603C761.96 164.107 761.649 164.685 761.422 165.336C761.205 165.978 761.096 166.659 761.096 167.38ZM785.104 171.749C785.104 171.354 785.015 170.989 784.838 170.653C784.67 170.308 784.319 169.997 783.786 169.72C783.263 169.434 782.473 169.187 781.416 168.98C780.528 168.792 779.723 168.57 779.002 168.313C778.291 168.056 777.684 167.745 777.18 167.38C776.687 167.015 776.307 166.585 776.04 166.092C775.773 165.598 775.64 165.02 775.64 164.359C775.64 163.727 775.778 163.129 776.055 162.567C776.341 162.004 776.741 161.505 777.254 161.071C777.778 160.636 778.405 160.296 779.135 160.049C779.866 159.802 780.681 159.679 781.579 159.679C782.863 159.679 783.959 159.906 784.867 160.36C785.776 160.814 786.472 161.421 786.956 162.182C787.439 162.932 787.681 163.766 787.681 164.685H784.941C784.941 164.24 784.808 163.811 784.541 163.396C784.285 162.971 783.904 162.621 783.401 162.344C782.907 162.068 782.3 161.93 781.579 161.93C780.819 161.93 780.202 162.048 779.728 162.285C779.264 162.512 778.923 162.804 778.706 163.159C778.499 163.515 778.395 163.89 778.395 164.285C778.395 164.581 778.444 164.847 778.543 165.084C778.652 165.312 778.839 165.524 779.106 165.721C779.372 165.909 779.748 166.087 780.231 166.255C780.715 166.422 781.332 166.59 782.083 166.758C783.396 167.054 784.477 167.41 785.326 167.824C786.175 168.239 786.807 168.748 787.222 169.35C787.637 169.952 787.844 170.683 787.844 171.542C787.844 172.243 787.696 172.885 787.4 173.467C787.113 174.05 786.694 174.553 786.141 174.978C785.598 175.393 784.946 175.719 784.186 175.956C783.435 176.183 782.591 176.296 781.653 176.296C780.241 176.296 779.047 176.044 778.069 175.541C777.092 175.037 776.351 174.386 775.847 173.586C775.344 172.786 775.092 171.942 775.092 171.053H777.847C777.886 171.804 778.104 172.401 778.499 172.845C778.894 173.28 779.377 173.591 779.95 173.778C780.523 173.956 781.09 174.045 781.653 174.045C782.404 174.045 783.031 173.946 783.534 173.749C784.048 173.551 784.438 173.28 784.704 172.934C784.971 172.589 785.104 172.194 785.104 171.749ZM797.856 174.045C798.508 174.045 799.11 173.912 799.663 173.645C800.216 173.378 800.67 173.013 801.026 172.549C801.381 172.075 801.584 171.537 801.633 170.935H804.24C804.19 171.883 803.869 172.766 803.277 173.586C802.694 174.395 801.929 175.052 800.981 175.556C800.033 176.049 798.992 176.296 797.856 176.296C796.652 176.296 795.6 176.084 794.702 175.659C793.813 175.235 793.072 174.652 792.48 173.912C791.897 173.171 791.458 172.322 791.162 171.364C790.875 170.397 790.732 169.375 790.732 168.298V167.676C790.732 166.6 790.875 165.583 791.162 164.625C791.458 163.658 791.897 162.804 792.48 162.063C793.072 161.323 793.813 160.74 794.702 160.315C795.6 159.891 796.652 159.679 797.856 159.679C799.11 159.679 800.206 159.935 801.144 160.449C802.082 160.952 802.818 161.643 803.351 162.522C803.894 163.391 804.19 164.378 804.24 165.484H801.633C801.584 164.823 801.396 164.225 801.07 163.692C800.754 163.159 800.32 162.734 799.767 162.419C799.224 162.093 798.587 161.93 797.856 161.93C797.017 161.93 796.311 162.098 795.738 162.433C795.175 162.759 794.726 163.203 794.391 163.766C794.065 164.319 793.828 164.936 793.68 165.618C793.541 166.289 793.472 166.975 793.472 167.676V168.298C793.472 168.999 793.541 169.691 793.68 170.372C793.818 171.053 794.05 171.67 794.376 172.223C794.711 172.776 795.161 173.221 795.723 173.556C796.296 173.882 797.007 174.045 797.856 174.045ZM810.06 162.493V176H807.32V159.975H809.986L810.06 162.493ZM815.066 159.886L815.052 162.433C814.824 162.384 814.607 162.354 814.4 162.344C814.202 162.325 813.975 162.315 813.719 162.315C813.087 162.315 812.529 162.414 812.045 162.611C811.561 162.809 811.151 163.085 810.816 163.44C810.48 163.796 810.213 164.221 810.016 164.714C809.828 165.198 809.705 165.731 809.646 166.314L808.875 166.758C808.875 165.79 808.969 164.882 809.157 164.033C809.354 163.184 809.655 162.433 810.06 161.782C810.465 161.12 810.979 160.607 811.601 160.241C812.233 159.866 812.983 159.679 813.852 159.679C814.049 159.679 814.276 159.703 814.533 159.753C814.79 159.792 814.968 159.837 815.066 159.886ZM820.576 159.975V176H817.821V159.975H820.576ZM817.614 155.724C817.614 155.28 817.747 154.905 818.014 154.598C818.29 154.292 818.695 154.139 819.228 154.139C819.751 154.139 820.151 154.292 820.428 154.598C820.714 154.905 820.857 155.28 820.857 155.724C820.857 156.149 820.714 156.514 820.428 156.82C820.151 157.116 819.751 157.264 819.228 157.264C818.695 157.264 818.29 157.116 818.014 156.82C817.747 156.514 817.614 156.149 817.614 155.724ZM827.715 163.055V182.161H824.96V159.975H827.478L827.715 163.055ZM838.512 167.854V168.165C838.512 169.33 838.374 170.411 838.097 171.409C837.821 172.396 837.416 173.255 836.883 173.986C836.359 174.716 835.713 175.284 834.942 175.689C834.172 176.094 833.289 176.296 832.291 176.296C831.274 176.296 830.376 176.128 829.596 175.793C828.816 175.457 828.154 174.968 827.611 174.326C827.068 173.685 826.634 172.914 826.308 172.016C825.992 171.117 825.775 170.105 825.656 168.98V167.321C825.775 166.136 825.997 165.075 826.323 164.137C826.648 163.199 827.078 162.399 827.611 161.737C828.154 161.066 828.811 160.557 829.581 160.212C830.351 159.856 831.24 159.679 832.247 159.679C833.254 159.679 834.148 159.876 834.928 160.271C835.708 160.656 836.364 161.209 836.897 161.93C837.431 162.651 837.83 163.515 838.097 164.522C838.374 165.519 838.512 166.63 838.512 167.854ZM835.757 168.165V167.854C835.757 167.054 835.673 166.304 835.505 165.603C835.337 164.892 835.076 164.27 834.72 163.737C834.375 163.194 833.93 162.769 833.387 162.463C832.844 162.147 832.197 161.989 831.447 161.989C830.756 161.989 830.154 162.107 829.64 162.344C829.137 162.581 828.707 162.902 828.352 163.307C827.996 163.702 827.705 164.156 827.478 164.67C827.261 165.173 827.098 165.697 826.989 166.24V170.076C827.186 170.767 827.463 171.419 827.818 172.031C828.174 172.633 828.648 173.122 829.24 173.497C829.833 173.862 830.578 174.045 831.477 174.045C832.217 174.045 832.854 173.892 833.387 173.586C833.93 173.27 834.375 172.84 834.72 172.297C835.076 171.754 835.337 171.132 835.505 170.431C835.673 169.72 835.757 168.965 835.757 168.165ZM848.716 159.975V162.078H840.052V159.975H848.716ZM842.985 156.08H845.725V172.031C845.725 172.574 845.809 172.984 845.976 173.26C846.144 173.536 846.362 173.719 846.628 173.808C846.895 173.897 847.181 173.941 847.487 173.941C847.714 173.941 847.951 173.922 848.198 173.882C848.455 173.833 848.647 173.793 848.776 173.764L848.79 176C848.573 176.069 848.287 176.133 847.931 176.193C847.586 176.262 847.166 176.296 846.673 176.296C846.001 176.296 845.384 176.163 844.821 175.896C844.258 175.63 843.809 175.185 843.473 174.563C843.148 173.931 842.985 173.082 842.985 172.016V156.08ZM854.907 159.975V176H852.153V159.975H854.907ZM851.945 155.724C851.945 155.28 852.078 154.905 852.345 154.598C852.622 154.292 853.026 154.139 853.56 154.139C854.083 154.139 854.483 154.292 854.759 154.598C855.046 154.905 855.189 155.28 855.189 155.724C855.189 156.149 855.046 156.514 854.759 156.82C854.483 157.116 854.083 157.264 853.56 157.264C853.026 157.264 852.622 157.116 852.345 156.82C852.078 156.514 851.945 156.149 851.945 155.724ZM858.58 168.165V167.824C858.58 166.669 858.748 165.598 859.084 164.611C859.42 163.613 859.903 162.749 860.535 162.019C861.167 161.278 861.933 160.705 862.831 160.301C863.73 159.886 864.737 159.679 865.852 159.679C866.978 159.679 867.99 159.886 868.889 160.301C869.797 160.705 870.567 161.278 871.199 162.019C871.841 162.749 872.33 163.613 872.665 164.611C873.001 165.598 873.169 166.669 873.169 167.824V168.165C873.169 169.32 873.001 170.392 872.665 171.379C872.33 172.366 871.841 173.23 871.199 173.971C870.567 174.702 869.802 175.274 868.903 175.689C868.015 176.094 867.008 176.296 865.882 176.296C864.756 176.296 863.744 176.094 862.846 175.689C861.947 175.274 861.177 174.702 860.535 173.971C859.903 173.23 859.42 172.366 859.084 171.379C858.748 170.392 858.58 169.32 858.58 168.165ZM861.32 167.824V168.165C861.32 168.965 861.414 169.72 861.602 170.431C861.789 171.132 862.071 171.754 862.446 172.297C862.831 172.84 863.31 173.27 863.883 173.586C864.455 173.892 865.122 174.045 865.882 174.045C866.632 174.045 867.289 173.892 867.852 173.586C868.425 173.27 868.899 172.84 869.274 172.297C869.649 171.754 869.93 171.132 870.118 170.431C870.315 169.72 870.414 168.965 870.414 168.165V167.824C870.414 167.035 870.315 166.289 870.118 165.588C869.93 164.877 869.644 164.25 869.259 163.707C868.884 163.154 868.41 162.72 867.837 162.404C867.274 162.088 866.613 161.93 865.852 161.93C865.102 161.93 864.44 162.088 863.868 162.404C863.305 162.72 862.831 163.154 862.446 163.707C862.071 164.25 861.789 164.877 861.602 165.588C861.414 166.289 861.32 167.035 861.32 167.824ZM879.345 163.396V176H876.605V159.975H879.197L879.345 163.396ZM878.693 167.38L877.553 167.336C877.563 166.24 877.726 165.228 878.042 164.299C878.358 163.361 878.802 162.547 879.375 161.856C879.947 161.165 880.629 160.631 881.419 160.256C882.218 159.871 883.102 159.679 884.07 159.679C884.86 159.679 885.571 159.787 886.202 160.004C886.834 160.212 887.373 160.547 887.817 161.012C888.271 161.476 888.617 162.078 888.854 162.818C889.091 163.549 889.209 164.443 889.209 165.499V176H886.454V165.47C886.454 164.63 886.331 163.959 886.084 163.455C885.837 162.942 885.477 162.572 885.003 162.344C884.529 162.107 883.946 161.989 883.255 161.989C882.574 161.989 881.952 162.132 881.389 162.419C880.836 162.705 880.357 163.1 879.952 163.603C879.557 164.107 879.246 164.685 879.019 165.336C878.802 165.978 878.693 166.659 878.693 167.38ZM908.685 154.436V176H905.871V154.436H908.685ZM915.617 154.436V156.776H898.955V154.436H915.617ZM923.57 176.296C922.454 176.296 921.442 176.109 920.534 175.733C919.635 175.348 918.86 174.81 918.209 174.119C917.567 173.428 917.073 172.608 916.727 171.66C916.382 170.713 916.209 169.676 916.209 168.55V167.928C916.209 166.625 916.402 165.465 916.787 164.448C917.172 163.421 917.695 162.552 918.357 161.841C919.018 161.13 919.769 160.592 920.608 160.227C921.447 159.861 922.316 159.679 923.215 159.679C924.36 159.679 925.347 159.876 926.177 160.271C927.016 160.666 927.702 161.219 928.235 161.93C928.769 162.631 929.164 163.46 929.42 164.418C929.677 165.366 929.805 166.403 929.805 167.528V168.758H917.838V166.521H927.065V166.314C927.026 165.603 926.878 164.912 926.621 164.24C926.374 163.569 925.979 163.016 925.436 162.581C924.893 162.147 924.153 161.93 923.215 161.93C922.593 161.93 922.02 162.063 921.497 162.33C920.973 162.586 920.524 162.971 920.149 163.485C919.774 163.998 919.482 164.625 919.275 165.366C919.068 166.106 918.964 166.96 918.964 167.928V168.55C918.964 169.31 919.068 170.026 919.275 170.698C919.492 171.359 919.803 171.942 920.208 172.445C920.623 172.949 921.121 173.344 921.704 173.63C922.296 173.917 922.968 174.06 923.718 174.06C924.686 174.06 925.505 173.862 926.177 173.467C926.848 173.072 927.436 172.544 927.939 171.883L929.598 173.201C929.252 173.724 928.813 174.223 928.28 174.697C927.747 175.171 927.09 175.556 926.31 175.852C925.54 176.148 924.627 176.296 923.57 176.296ZM934.856 159.975L938.366 165.81L941.921 159.975H945.135L939.892 167.884L945.297 176H942.128L938.425 169.987L934.723 176H931.538L936.929 167.884L931.701 159.975H934.856ZM954.762 159.975V162.078H946.097V159.975H954.762ZM949.03 156.08H951.77V172.031C951.77 172.574 951.854 172.984 952.022 173.26C952.189 173.536 952.407 173.719 952.673 173.808C952.94 173.897 953.226 173.941 953.532 173.941C953.759 173.941 953.996 173.922 954.243 173.882C954.5 173.833 954.692 173.793 954.821 173.764L954.836 176C954.618 176.069 954.332 176.133 953.977 176.193C953.631 176.262 953.211 176.296 952.718 176.296C952.046 176.296 951.429 176.163 950.866 175.896C950.303 175.63 949.854 175.185 949.519 174.563C949.193 173.931 949.03 173.082 949.03 172.016V156.08ZM964.285 167.232V167.38C964.285 169.543 964.043 171.498 963.559 173.245C963.075 174.993 962.458 176.518 961.708 177.822C960.957 179.135 960.167 180.221 959.338 181.08C958.509 181.949 957.743 182.576 957.042 182.961L956.465 181.302C957.047 180.858 957.635 180.236 958.227 179.436C958.82 178.646 959.368 177.669 959.871 176.504C960.375 175.348 960.78 174.015 961.086 172.505C961.392 170.984 961.545 169.286 961.545 167.41V167.202C961.545 165.326 961.382 163.633 961.056 162.122C960.73 160.602 960.306 159.264 959.782 158.109C959.269 156.953 958.716 155.981 958.124 155.191C957.541 154.391 956.988 153.774 956.465 153.34L957.042 151.666C957.743 152.051 958.509 152.678 959.338 153.547C960.167 154.406 960.957 155.492 961.708 156.805C962.458 158.118 963.075 159.649 963.559 161.397C964.043 163.134 964.285 165.08 964.285 167.232Z" fill="#49454F"/>
<path d="M251.598 208.938H253.789L259.379 222.848L264.957 208.938H267.16L260.223 226H258.512L251.598 208.938ZM250.883 208.938H252.816L253.133 219.344V226H250.883V208.938ZM265.93 208.938H267.863V226H265.613V219.344L265.93 208.938ZM278.129 219.309H273.57V217.469H278.129C279.012 217.469 279.727 217.328 280.273 217.047C280.82 216.766 281.219 216.375 281.469 215.875C281.727 215.375 281.855 214.805 281.855 214.164C281.855 213.578 281.727 213.027 281.469 212.512C281.219 211.996 280.82 211.582 280.273 211.27C279.727 210.949 279.012 210.789 278.129 210.789H274.098V226H271.836V208.938H278.129C279.418 208.938 280.508 209.16 281.398 209.605C282.289 210.051 282.965 210.668 283.426 211.457C283.887 212.238 284.117 213.133 284.117 214.141C284.117 215.234 283.887 216.168 283.426 216.941C282.965 217.715 282.289 218.305 281.398 218.711C280.508 219.109 279.418 219.309 278.129 219.309ZM297.945 220.258V222.039H285.617V220.762L293.258 208.938H295.027L293.129 212.359L288.078 220.258H297.945ZM295.566 208.938V226H293.398V208.938H295.566ZM302.117 223.422V225.168C302.117 225.879 301.938 226.629 301.578 227.418C301.219 228.215 300.715 228.879 300.066 229.41L298.836 228.555C299.086 228.211 299.297 227.859 299.469 227.5C299.641 227.148 299.77 226.781 299.855 226.398C299.949 226.023 299.996 225.625 299.996 225.203V223.422H302.117ZM311.879 208.938H314.07L319.66 222.848L325.238 208.938H327.441L320.504 226H318.793L311.879 208.938ZM311.164 208.938H313.098L313.414 219.344V226H311.164V208.938ZM326.211 208.938H328.145V226H325.895V219.344L326.211 208.938ZM345.254 216.93V218.008C345.254 219.289 345.094 220.438 344.773 221.453C344.453 222.469 343.992 223.332 343.391 224.043C342.789 224.754 342.066 225.297 341.223 225.672C340.387 226.047 339.449 226.234 338.41 226.234C337.402 226.234 336.477 226.047 335.633 225.672C334.797 225.297 334.07 224.754 333.453 224.043C332.844 223.332 332.371 222.469 332.035 221.453C331.699 220.438 331.531 219.289 331.531 218.008V216.93C331.531 215.648 331.695 214.504 332.023 213.496C332.359 212.48 332.832 211.617 333.441 210.906C334.051 210.188 334.773 209.641 335.609 209.266C336.453 208.891 337.379 208.703 338.387 208.703C339.426 208.703 340.363 208.891 341.199 209.266C342.043 209.641 342.766 210.188 343.367 210.906C343.977 211.617 344.441 212.48 344.762 213.496C345.09 214.504 345.254 215.648 345.254 216.93ZM343.016 218.008V216.906C343.016 215.891 342.91 214.992 342.699 214.211C342.496 213.43 342.195 212.773 341.797 212.242C341.398 211.711 340.91 211.309 340.332 211.035C339.762 210.762 339.113 210.625 338.387 210.625C337.684 210.625 337.047 210.762 336.477 211.035C335.914 211.309 335.43 211.711 335.023 212.242C334.625 212.773 334.316 213.43 334.098 214.211C333.879 214.992 333.77 215.891 333.77 216.906V218.008C333.77 219.031 333.879 219.938 334.098 220.727C334.316 221.508 334.629 222.168 335.035 222.707C335.449 223.238 335.938 223.641 336.5 223.914C337.07 224.188 337.707 224.324 338.41 224.324C339.145 224.324 339.797 224.188 340.367 223.914C340.938 223.641 341.418 223.238 341.809 222.707C342.207 222.168 342.508 221.508 342.711 220.727C342.914 219.938 343.016 219.031 343.016 218.008ZM353.891 223.41L358.918 208.938H361.367L355.051 226H353.305L353.891 223.41ZM349.191 208.938L354.172 223.41L354.793 226H353.047L346.742 208.938H349.191ZM362.656 223.422V225.168C362.656 225.879 362.477 226.629 362.117 227.418C361.758 228.215 361.254 228.879 360.605 229.41L359.375 228.555C359.625 228.211 359.836 227.859 360.008 227.5C360.18 227.148 360.309 226.781 360.395 226.398C360.488 226.023 360.535 225.625 360.535 225.203V223.422H362.656ZM372.418 208.938H374.609L380.199 222.848L385.777 208.938H387.98L381.043 226H379.332L372.418 208.938ZM371.703 208.938H373.637L373.953 219.344V226H371.703V208.938ZM386.75 208.938H388.684V226H386.434V219.344L386.75 208.938ZM398.949 219.309H394.391V217.469H398.949C399.832 217.469 400.547 217.328 401.094 217.047C401.641 216.766 402.039 216.375 402.289 215.875C402.547 215.375 402.676 214.805 402.676 214.164C402.676 213.578 402.547 213.027 402.289 212.512C402.039 211.996 401.641 211.582 401.094 211.27C400.547 210.949 399.832 210.789 398.949 210.789H394.918V226H392.656V208.938H398.949C400.238 208.938 401.328 209.16 402.219 209.605C403.109 210.051 403.785 210.668 404.246 211.457C404.707 212.238 404.938 213.133 404.938 214.141C404.938 215.234 404.707 216.168 404.246 216.941C403.785 217.715 403.109 218.305 402.219 218.711C401.328 219.109 400.238 219.309 398.949 219.309ZM410.398 216.402H411.945C412.703 216.402 413.328 216.277 413.82 216.027C414.32 215.77 414.691 215.422 414.934 214.984C415.184 214.539 415.309 214.039 415.309 213.484C415.309 212.828 415.199 212.277 414.98 211.832C414.762 211.387 414.434 211.051 413.996 210.824C413.559 210.598 413.004 210.484 412.332 210.484C411.723 210.484 411.184 210.605 410.715 210.848C410.254 211.082 409.891 211.418 409.625 211.855C409.367 212.293 409.238 212.809 409.238 213.402H407.07C407.07 212.535 407.289 211.746 407.727 211.035C408.164 210.324 408.777 209.758 409.566 209.336C410.363 208.914 411.285 208.703 412.332 208.703C413.363 208.703 414.266 208.887 415.039 209.254C415.812 209.613 416.414 210.152 416.844 210.871C417.273 211.582 417.488 212.469 417.488 213.531C417.488 213.961 417.387 214.422 417.184 214.914C416.988 215.398 416.68 215.852 416.258 216.273C415.844 216.695 415.305 217.043 414.641 217.316C413.977 217.582 413.18 217.715 412.25 217.715H410.398V216.402ZM410.398 218.184V216.883H412.25C413.336 216.883 414.234 217.012 414.945 217.27C415.656 217.527 416.215 217.871 416.621 218.301C417.035 218.73 417.324 219.203 417.488 219.719C417.66 220.227 417.746 220.734 417.746 221.242C417.746 222.039 417.609 222.746 417.336 223.363C417.07 223.98 416.691 224.504 416.199 224.934C415.715 225.363 415.145 225.688 414.488 225.906C413.832 226.125 413.117 226.234 412.344 226.234C411.602 226.234 410.902 226.129 410.246 225.918C409.598 225.707 409.023 225.402 408.523 225.004C408.023 224.598 407.633 224.102 407.352 223.516C407.07 222.922 406.93 222.246 406.93 221.488H409.098C409.098 222.082 409.227 222.602 409.484 223.047C409.75 223.492 410.125 223.84 410.609 224.09C411.102 224.332 411.68 224.453 412.344 224.453C413.008 224.453 413.578 224.34 414.055 224.113C414.539 223.879 414.91 223.527 415.168 223.059C415.434 222.59 415.566 222 415.566 221.289C415.566 220.578 415.418 219.996 415.121 219.543C414.824 219.082 414.402 218.742 413.855 218.523C413.316 218.297 412.68 218.184 411.945 218.184H410.398ZM422.938 223.422V225.168C422.938 225.879 422.758 226.629 422.398 227.418C422.039 228.215 421.535 228.879 420.887 229.41L419.656 228.555C419.906 228.211 420.117 227.859 420.289 227.5C420.461 227.148 420.59 226.781 420.676 226.398C420.77 226.023 420.816 225.625 420.816 225.203V223.422H422.938ZM436.473 220.844L439.859 208.938H441.5L440.551 213.566L436.906 226H435.277L436.473 220.844ZM432.969 208.938L435.664 220.609L436.473 226H434.855L430.719 208.938H432.969ZM445.883 220.598L448.52 208.938H450.781L446.656 226H445.039L445.883 220.598ZM441.746 208.938L445.039 220.844L446.234 226H444.605L441.09 213.566L440.129 208.938H441.746ZM459.09 210.449L453.441 226H451.133L457.637 208.938H459.125L459.09 210.449ZM463.824 226L458.164 210.449L458.129 208.938H459.617L466.145 226H463.824ZM463.531 219.684V221.535H453.945V219.684H463.531ZM472.906 223.41L477.934 208.938H480.383L474.066 226H472.32L472.906 223.41ZM468.207 208.938L473.188 223.41L473.809 226H472.062L465.758 208.938H468.207ZM481.672 223.422V225.168C481.672 225.879 481.492 226.629 481.133 227.418C480.773 228.215 480.27 228.879 479.621 229.41L478.391 228.555C478.641 228.211 478.852 227.859 479.023 227.5C479.195 227.148 479.324 226.781 479.41 226.398C479.504 226.023 479.551 225.625 479.551 225.203V223.422H481.672ZM497.012 219.309H492.453V217.469H497.012C497.895 217.469 498.609 217.328 499.156 217.047C499.703 216.766 500.102 216.375 500.352 215.875C500.609 215.375 500.738 214.805 500.738 214.164C500.738 213.578 500.609 213.027 500.352 212.512C500.102 211.996 499.703 211.582 499.156 211.27C498.609 210.949 497.895 210.789 497.012 210.789H492.98V226H490.719V208.938H497.012C498.301 208.938 499.391 209.16 500.281 209.605C501.172 210.051 501.848 210.668 502.309 211.457C502.77 212.238 503 213.133 503 214.141C503 215.234 502.77 216.168 502.309 216.941C501.848 217.715 501.172 218.305 500.281 218.711C499.391 219.109 498.301 219.309 497.012 219.309ZM510.477 226H506.914L506.938 224.16H510.477C511.695 224.16 512.711 223.906 513.523 223.398C514.336 222.883 514.945 222.164 515.352 221.242C515.766 220.312 515.973 219.227 515.973 217.984V216.941C515.973 215.965 515.855 215.098 515.621 214.34C515.387 213.574 515.043 212.93 514.59 212.406C514.137 211.875 513.582 211.473 512.926 211.199C512.277 210.926 511.531 210.789 510.688 210.789H506.844V208.938H510.688C511.805 208.938 512.824 209.125 513.746 209.5C514.668 209.867 515.461 210.402 516.125 211.105C516.797 211.801 517.312 212.645 517.672 213.637C518.031 214.621 518.211 215.73 518.211 216.965V217.984C518.211 219.219 518.031 220.332 517.672 221.324C517.312 222.309 516.793 223.148 516.113 223.844C515.441 224.539 514.629 225.074 513.676 225.449C512.73 225.816 511.664 226 510.477 226ZM508.121 208.938V226H505.859V208.938H508.121ZM523.871 208.938V226H521.609V208.938H523.871ZM531.02 216.613V218.465H523.379V216.613H531.02ZM532.18 208.938V210.789H523.379V208.938H532.18ZM533.773 223.422V225.168C533.773 225.879 533.594 226.629 533.234 227.418C532.875 228.215 532.371 228.879 531.723 229.41L530.492 228.555C530.742 228.211 530.953 227.859 531.125 227.5C531.297 227.148 531.426 226.781 531.512 226.398C531.605 226.023 531.652 225.625 531.652 225.203V223.422H533.773ZM547.438 226H543.875L543.898 224.16H547.438C548.656 224.16 549.672 223.906 550.484 223.398C551.297 222.883 551.906 222.164 552.312 221.242C552.727 220.312 552.934 219.227 552.934 217.984V216.941C552.934 215.965 552.816 215.098 552.582 214.34C552.348 213.574 552.004 212.93 551.551 212.406C551.098 211.875 550.543 211.473 549.887 211.199C549.238 210.926 548.492 210.789 547.648 210.789H543.805V208.938H547.648C548.766 208.938 549.785 209.125 550.707 209.5C551.629 209.867 552.422 210.402 553.086 211.105C553.758 211.801 554.273 212.645 554.633 213.637C554.992 214.621 555.172 215.73 555.172 216.965V217.984C555.172 219.219 554.992 220.332 554.633 221.324C554.273 222.309 553.754 223.148 553.074 223.844C552.402 224.539 551.59 225.074 550.637 225.449C549.691 225.816 548.625 226 547.438 226ZM545.082 208.938V226H542.82V208.938H545.082ZM571.707 216.93V218.008C571.707 219.289 571.547 220.438 571.227 221.453C570.906 222.469 570.445 223.332 569.844 224.043C569.242 224.754 568.52 225.297 567.676 225.672C566.84 226.047 565.902 226.234 564.863 226.234C563.855 226.234 562.93 226.047 562.086 225.672C561.25 225.297 560.523 224.754 559.906 224.043C559.297 223.332 558.824 222.469 558.488 221.453C558.152 220.438 557.984 219.289 557.984 218.008V216.93C557.984 215.648 558.148 214.504 558.477 213.496C558.812 212.48 559.285 211.617 559.895 210.906C560.504 210.188 561.227 209.641 562.062 209.266C562.906 208.891 563.832 208.703 564.84 208.703C565.879 208.703 566.816 208.891 567.652 209.266C568.496 209.641 569.219 210.188 569.82 210.906C570.43 211.617 570.895 212.48 571.215 213.496C571.543 214.504 571.707 215.648 571.707 216.93ZM569.469 218.008V216.906C569.469 215.891 569.363 214.992 569.152 214.211C568.949 213.43 568.648 212.773 568.25 212.242C567.852 211.711 567.363 211.309 566.785 211.035C566.215 210.762 565.566 210.625 564.84 210.625C564.137 210.625 563.5 210.762 562.93 211.035C562.367 211.309 561.883 211.711 561.477 212.242C561.078 212.773 560.77 213.43 560.551 214.211C560.332 214.992 560.223 215.891 560.223 216.906V218.008C560.223 219.031 560.332 219.938 560.551 220.727C560.77 221.508 561.082 222.168 561.488 222.707C561.902 223.238 562.391 223.641 562.953 223.914C563.523 224.188 564.16 224.324 564.863 224.324C565.598 224.324 566.25 224.188 566.82 223.914C567.391 223.641 567.871 223.238 568.262 222.707C568.66 222.168 568.961 221.508 569.164 220.727C569.367 219.938 569.469 219.031 569.469 218.008ZM585.395 220.574H587.645C587.527 221.652 587.219 222.617 586.719 223.469C586.219 224.32 585.512 224.996 584.598 225.496C583.684 225.988 582.543 226.234 581.176 226.234C580.176 226.234 579.266 226.047 578.445 225.672C577.633 225.297 576.934 224.766 576.348 224.078C575.762 223.383 575.309 222.551 574.988 221.582C574.676 220.605 574.52 219.52 574.52 218.324V216.625C574.52 215.43 574.676 214.348 574.988 213.379C575.309 212.402 575.766 211.566 576.359 210.871C576.961 210.176 577.684 209.641 578.527 209.266C579.371 208.891 580.32 208.703 581.375 208.703C582.664 208.703 583.754 208.945 584.645 209.43C585.535 209.914 586.227 210.586 586.719 211.445C587.219 212.297 587.527 213.285 587.645 214.41H585.395C585.285 213.613 585.082 212.93 584.785 212.359C584.488 211.781 584.066 211.336 583.52 211.023C582.973 210.711 582.258 210.555 581.375 210.555C580.617 210.555 579.949 210.699 579.371 210.988C578.801 211.277 578.32 211.688 577.93 212.219C577.547 212.75 577.258 213.387 577.062 214.129C576.867 214.871 576.77 215.695 576.77 216.602V218.324C576.77 219.16 576.855 219.945 577.027 220.68C577.207 221.414 577.477 222.059 577.836 222.613C578.195 223.168 578.652 223.605 579.207 223.926C579.762 224.238 580.418 224.395 581.176 224.395C582.137 224.395 582.902 224.242 583.473 223.938C584.043 223.633 584.473 223.195 584.762 222.625C585.059 222.055 585.27 221.371 585.395 220.574ZM592.191 208.938L596.293 215.477L600.395 208.938H603.031L597.641 217.387L603.16 226H600.5L596.293 219.332L592.086 226H589.426L594.945 217.387L589.555 208.938H592.191ZM610.824 219.801V219.531C610.824 218.617 610.957 217.77 611.223 216.988C611.488 216.199 611.871 215.516 612.371 214.938C612.871 214.352 613.477 213.898 614.188 213.578C614.898 213.25 615.695 213.086 616.578 213.086C617.469 213.086 618.27 213.25 618.98 213.578C619.699 213.898 620.309 214.352 620.809 214.938C621.316 215.516 621.703 216.199 621.969 216.988C622.234 217.77 622.367 218.617 622.367 219.531V219.801C622.367 220.715 622.234 221.562 621.969 222.344C621.703 223.125 621.316 223.809 620.809 224.395C620.309 224.973 619.703 225.426 618.992 225.754C618.289 226.074 617.492 226.234 616.602 226.234C615.711 226.234 614.91 226.074 614.199 225.754C613.488 225.426 612.879 224.973 612.371 224.395C611.871 223.809 611.488 223.125 611.223 222.344C610.957 221.562 610.824 220.715 610.824 219.801ZM612.992 219.531V219.801C612.992 220.434 613.066 221.031 613.215 221.594C613.363 222.148 613.586 222.641 613.883 223.07C614.188 223.5 614.566 223.84 615.02 224.09C615.473 224.332 616 224.453 616.602 224.453C617.195 224.453 617.715 224.332 618.16 224.09C618.613 223.84 618.988 223.5 619.285 223.07C619.582 222.641 619.805 222.148 619.953 221.594C620.109 221.031 620.188 220.434 620.188 219.801V219.531C620.188 218.906 620.109 218.316 619.953 217.762C619.805 217.199 619.578 216.703 619.273 216.273C618.977 215.836 618.602 215.492 618.148 215.242C617.703 214.992 617.18 214.867 616.578 214.867C615.984 214.867 615.461 214.992 615.008 215.242C614.562 215.492 614.188 215.836 613.883 216.273C613.586 216.703 613.363 217.199 613.215 217.762C613.066 218.316 612.992 218.906 612.992 219.531ZM627.254 215.312V226H625.086V213.32H627.195L627.254 215.312ZM631.215 213.25L631.203 215.266C631.023 215.227 630.852 215.203 630.688 215.195C630.531 215.18 630.352 215.172 630.148 215.172C629.648 215.172 629.207 215.25 628.824 215.406C628.441 215.562 628.117 215.781 627.852 216.062C627.586 216.344 627.375 216.68 627.219 217.07C627.07 217.453 626.973 217.875 626.926 218.336L626.316 218.688C626.316 217.922 626.391 217.203 626.539 216.531C626.695 215.859 626.934 215.266 627.254 214.75C627.574 214.227 627.98 213.82 628.473 213.531C628.973 213.234 629.566 213.086 630.254 213.086C630.41 213.086 630.59 213.105 630.793 213.145C630.996 213.176 631.137 213.211 631.215 213.25ZM645.336 208.938V226H643.109V208.938H645.336ZM650.82 208.938V210.789H637.637V208.938H650.82ZM654.816 208.938L658.918 215.477L663.02 208.938H665.656L660.266 217.387L665.785 226H663.125L658.918 219.332L654.711 226H652.051L657.57 217.387L652.18 208.938H654.816ZM674.703 208.938V226H672.477V208.938H674.703ZM680.188 208.938V210.789H667.004V208.938H680.188ZM690.77 226H688.602V212.219C688.602 211.258 688.789 210.445 689.164 209.781C689.539 209.117 690.074 208.613 690.77 208.27C691.465 207.926 692.289 207.754 693.242 207.754C693.805 207.754 694.355 207.824 694.895 207.965C695.434 208.098 695.988 208.266 696.559 208.469L696.195 210.297C695.836 210.156 695.418 210.023 694.941 209.898C694.473 209.766 693.957 209.699 693.395 209.699C692.465 209.699 691.793 209.91 691.379 210.332C690.973 210.746 690.77 211.375 690.77 212.219V226ZM693.359 213.32V214.984H686.598V213.32H693.359ZM697.625 213.32V226H695.457V213.32H697.625ZM703.543 208V226H701.363V208H703.543ZM712.285 226.234C711.402 226.234 710.602 226.086 709.883 225.789C709.172 225.484 708.559 225.059 708.043 224.512C707.535 223.965 707.145 223.316 706.871 222.566C706.598 221.816 706.461 220.996 706.461 220.105V219.613C706.461 218.582 706.613 217.664 706.918 216.859C707.223 216.047 707.637 215.359 708.16 214.797C708.684 214.234 709.277 213.809 709.941 213.52C710.605 213.23 711.293 213.086 712.004 213.086C712.91 213.086 713.691 213.242 714.348 213.555C715.012 213.867 715.555 214.305 715.977 214.867C716.398 215.422 716.711 216.078 716.914 216.836C717.117 217.586 717.219 218.406 717.219 219.297V220.27H707.75V218.5H715.051V218.336C715.02 217.773 714.902 217.227 714.699 216.695C714.504 216.164 714.191 215.727 713.762 215.383C713.332 215.039 712.746 214.867 712.004 214.867C711.512 214.867 711.059 214.973 710.645 215.184C710.23 215.387 709.875 215.691 709.578 216.098C709.281 216.504 709.051 217 708.887 217.586C708.723 218.172 708.641 218.848 708.641 219.613V220.105C708.641 220.707 708.723 221.273 708.887 221.805C709.059 222.328 709.305 222.789 709.625 223.188C709.953 223.586 710.348 223.898 710.809 224.125C711.277 224.352 711.809 224.465 712.402 224.465C713.168 224.465 713.816 224.309 714.348 223.996C714.879 223.684 715.344 223.266 715.742 222.742L717.055 223.785C716.781 224.199 716.434 224.594 716.012 224.969C715.59 225.344 715.07 225.648 714.453 225.883C713.844 226.117 713.121 226.234 712.285 226.234Z" fill="black" fill-opacity="0.4"/>
<g clip-path="url(#clip1_6_3880)">
<path d="M432.125 294.065C432.125 293.671 432.063 293.32 431.94 293.013C431.826 292.706 431.62 292.425 431.322 292.17C431.024 291.916 430.603 291.67 430.059 291.433C429.524 291.188 428.839 290.938 428.006 290.683C427.093 290.403 426.251 290.091 425.479 289.749C424.716 289.398 424.049 288.995 423.479 288.538C422.909 288.073 422.466 287.543 422.15 286.946C421.834 286.341 421.676 285.643 421.676 284.854C421.676 284.073 421.839 283.363 422.163 282.722C422.497 282.082 422.966 281.529 423.571 281.064C424.185 280.59 424.909 280.226 425.742 279.972C426.576 279.709 427.497 279.577 428.506 279.577C429.927 279.577 431.151 279.84 432.177 280.367C433.213 280.893 434.006 281.599 434.559 282.485C435.121 283.371 435.401 284.349 435.401 285.42H432.125C432.125 284.788 431.989 284.231 431.717 283.749C431.454 283.257 431.05 282.871 430.506 282.591C429.971 282.31 429.291 282.169 428.466 282.169C427.686 282.169 427.036 282.288 426.519 282.525C426.001 282.762 425.615 283.082 425.361 283.485C425.106 283.889 424.979 284.345 424.979 284.854C424.979 285.214 425.063 285.543 425.229 285.841C425.396 286.13 425.65 286.402 425.993 286.657C426.335 286.902 426.765 287.135 427.282 287.354C427.8 287.573 428.409 287.784 429.111 287.986C430.173 288.302 431.098 288.652 431.888 289.039C432.677 289.416 433.335 289.846 433.862 290.328C434.388 290.811 434.783 291.359 435.046 291.973C435.309 292.578 435.441 293.267 435.441 294.039C435.441 294.846 435.278 295.574 434.954 296.223C434.629 296.864 434.164 297.412 433.559 297.868C432.962 298.316 432.243 298.662 431.401 298.908C430.568 299.145 429.638 299.263 428.611 299.263C427.69 299.263 426.782 299.14 425.887 298.895C425.001 298.649 424.194 298.276 423.466 297.776C422.738 297.267 422.159 296.636 421.729 295.881C421.299 295.118 421.084 294.228 421.084 293.21H424.387C424.387 293.833 424.492 294.364 424.703 294.802C424.922 295.241 425.225 295.601 425.611 295.881C425.997 296.153 426.444 296.355 426.953 296.487C427.471 296.618 428.023 296.684 428.611 296.684C429.383 296.684 430.028 296.574 430.546 296.355C431.072 296.136 431.467 295.829 431.73 295.434C431.993 295.039 432.125 294.583 432.125 294.065ZM444.516 299.263C443.463 299.263 442.511 299.092 441.66 298.75C440.818 298.399 440.099 297.912 439.502 297.289C438.914 296.666 438.463 295.934 438.147 295.092C437.831 294.25 437.673 293.342 437.673 292.368V291.841C437.673 290.727 437.835 289.718 438.16 288.815C438.484 287.911 438.936 287.139 439.515 286.499C440.094 285.85 440.779 285.354 441.568 285.012C442.358 284.67 443.213 284.499 444.134 284.499C445.152 284.499 446.042 284.67 446.805 285.012C447.569 285.354 448.2 285.836 448.7 286.459C449.209 287.073 449.586 287.806 449.832 288.657C450.086 289.508 450.214 290.447 450.214 291.473V292.828H439.213V290.552H447.082V290.302C447.064 289.732 446.95 289.196 446.74 288.696C446.538 288.196 446.226 287.793 445.805 287.486C445.384 287.179 444.823 287.025 444.121 287.025C443.595 287.025 443.125 287.139 442.713 287.367C442.309 287.587 441.972 287.907 441.7 288.328C441.428 288.749 441.217 289.258 441.068 289.854C440.928 290.442 440.857 291.104 440.857 291.841V292.368C440.857 292.991 440.941 293.57 441.108 294.105C441.283 294.631 441.537 295.092 441.871 295.486C442.204 295.881 442.608 296.193 443.081 296.421C443.555 296.64 444.095 296.75 444.7 296.75C445.463 296.75 446.143 296.596 446.74 296.289C447.336 295.982 447.854 295.548 448.292 294.986L449.964 296.605C449.657 297.052 449.257 297.482 448.766 297.895C448.275 298.298 447.674 298.627 446.963 298.882C446.262 299.136 445.446 299.263 444.516 299.263ZM456.275 278.787V299H453.091V278.787H456.275ZM466.219 299.263C465.166 299.263 464.214 299.092 463.363 298.75C462.521 298.399 461.802 297.912 461.205 297.289C460.617 296.666 460.165 295.934 459.85 295.092C459.534 294.25 459.376 293.342 459.376 292.368V291.841C459.376 290.727 459.538 289.718 459.863 288.815C460.187 287.911 460.639 287.139 461.218 286.499C461.797 285.85 462.481 285.354 463.271 285.012C464.061 284.67 464.916 284.499 465.837 284.499C466.855 284.499 467.745 284.67 468.508 285.012C469.272 285.354 469.903 285.836 470.403 286.459C470.912 287.073 471.289 287.806 471.535 288.657C471.789 289.508 471.917 290.447 471.917 291.473V292.828H460.915V290.552H468.785V290.302C468.767 289.732 468.653 289.196 468.443 288.696C468.241 288.196 467.929 287.793 467.508 287.486C467.087 287.179 466.526 287.025 465.824 287.025C465.297 287.025 464.828 287.139 464.416 287.367C464.012 287.587 463.675 287.907 463.403 288.328C463.131 288.749 462.92 289.258 462.771 289.854C462.631 290.442 462.56 291.104 462.56 291.841V292.368C462.56 292.991 462.644 293.57 462.81 294.105C462.986 294.631 463.24 295.092 463.574 295.486C463.907 295.881 464.311 296.193 464.784 296.421C465.258 296.64 465.798 296.75 466.403 296.75C467.166 296.75 467.846 296.596 468.443 296.289C469.039 295.982 469.557 295.548 469.995 294.986L471.667 296.605C471.359 297.052 470.96 297.482 470.469 297.895C469.978 298.298 469.377 298.627 468.666 298.882C467.964 299.136 467.149 299.263 466.219 299.263ZM480.399 296.737C480.917 296.737 481.382 296.636 481.794 296.434C482.215 296.223 482.553 295.934 482.807 295.565C483.071 295.197 483.215 294.772 483.242 294.289H486.229C486.211 295.21 485.939 296.048 485.413 296.802C484.887 297.557 484.189 298.158 483.321 298.605C482.452 299.044 481.492 299.263 480.439 299.263C479.351 299.263 478.404 299.079 477.596 298.71C476.789 298.333 476.118 297.816 475.583 297.158C475.048 296.5 474.644 295.741 474.372 294.881C474.109 294.021 473.978 293.1 473.978 292.118V291.657C473.978 290.675 474.109 289.753 474.372 288.894C474.644 288.025 475.048 287.262 475.583 286.604C476.118 285.946 476.789 285.433 477.596 285.064C478.404 284.687 479.347 284.499 480.426 284.499C481.566 284.499 482.566 284.727 483.426 285.183C484.286 285.63 484.961 286.258 485.452 287.065C485.952 287.863 486.211 288.793 486.229 289.854H483.242C483.215 289.328 483.084 288.854 482.847 288.433C482.619 288.003 482.294 287.661 481.873 287.407C481.461 287.152 480.965 287.025 480.386 287.025C479.746 287.025 479.215 287.157 478.794 287.42C478.373 287.674 478.044 288.025 477.807 288.473C477.57 288.911 477.399 289.407 477.294 289.96C477.197 290.504 477.149 291.069 477.149 291.657V292.118C477.149 292.706 477.197 293.276 477.294 293.828C477.39 294.381 477.557 294.877 477.794 295.315C478.039 295.745 478.373 296.092 478.794 296.355C479.215 296.609 479.75 296.737 480.399 296.737ZM495.383 284.762V287.078H487.356V284.762H495.383ZM489.672 281.275H492.843V295.065C492.843 295.504 492.904 295.842 493.027 296.079C493.159 296.307 493.339 296.46 493.567 296.539C493.795 296.618 494.062 296.658 494.369 296.658C494.589 296.658 494.799 296.645 495.001 296.618C495.203 296.592 495.365 296.566 495.488 296.539L495.501 298.961C495.238 299.039 494.931 299.11 494.58 299.171C494.238 299.232 493.843 299.263 493.396 299.263C492.668 299.263 492.023 299.136 491.461 298.882C490.9 298.618 490.461 298.193 490.145 297.605C489.83 297.017 489.672 296.237 489.672 295.263V281.275ZM508.545 279.84V299H505.242V279.84H508.545ZM516.362 288.223V290.841H507.703V288.223H516.362ZM517.454 279.84V282.472H507.703V279.84H517.454ZM523.358 284.762V299H520.173V284.762H523.358ZM519.963 281.025C519.963 280.542 520.12 280.143 520.436 279.827C520.761 279.502 521.208 279.34 521.779 279.34C522.34 279.34 522.783 279.502 523.108 279.827C523.432 280.143 523.595 280.542 523.595 281.025C523.595 281.498 523.432 281.893 523.108 282.209C522.783 282.525 522.34 282.683 521.779 282.683C521.208 282.683 520.761 282.525 520.436 282.209C520.12 281.893 519.963 281.498 519.963 281.025ZM530.419 278.787V299H527.235V278.787H530.419ZM540.363 299.263C539.31 299.263 538.358 299.092 537.507 298.75C536.665 298.399 535.946 297.912 535.349 297.289C534.761 296.666 534.309 295.934 533.994 295.092C533.678 294.25 533.52 293.342 533.52 292.368V291.841C533.52 290.727 533.682 289.718 534.007 288.815C534.331 287.911 534.783 287.139 535.362 286.499C535.941 285.85 536.625 285.354 537.415 285.012C538.205 284.67 539.06 284.499 539.981 284.499C540.999 284.499 541.889 284.67 542.652 285.012C543.416 285.354 544.047 285.836 544.547 286.459C545.056 287.073 545.433 287.806 545.679 288.657C545.933 289.508 546.061 290.447 546.061 291.473V292.828H535.06V290.552H542.929V290.302C542.911 289.732 542.797 289.196 542.587 288.696C542.385 288.196 542.073 287.793 541.652 287.486C541.231 287.179 540.67 287.025 539.968 287.025C539.442 287.025 538.972 287.139 538.56 287.367C538.156 287.587 537.819 287.907 537.547 288.328C537.275 288.749 537.064 289.258 536.915 289.854C536.775 290.442 536.704 291.104 536.704 291.841V292.368C536.704 292.991 536.788 293.57 536.954 294.105C537.13 294.631 537.384 295.092 537.718 295.486C538.051 295.881 538.455 296.193 538.928 296.421C539.402 296.64 539.942 296.75 540.547 296.75C541.31 296.75 541.99 296.596 542.587 296.289C543.183 295.982 543.701 295.548 544.139 294.986L545.811 296.605C545.504 297.052 545.104 297.482 544.613 297.895C544.122 298.298 543.521 298.627 542.81 298.882C542.108 299.136 541.293 299.263 540.363 299.263Z" fill="#7E22CE"/>
</g>
<rect x="374.763" y="252.963" width="217.475" height="75.075" rx="37.5375" stroke="#7E22CE" stroke-width="1.925"/>
<defs>
<clipPath id="clip0_6_3880">
<rect width="128" height="128" fill="white" transform="translate(419.5)"/>
</clipPath>
<clipPath id="clip1_6_3880">
<rect x="373.8" y="252" width="219.4" height="77" rx="38.5" fill="white"/>
</clipPath>
</defs>
</svg>
